M48
; DRILL file {KiCad (6.0.9)} date Mon Feb 20 20:30:59 2023
; FORMAT={-:-/ absolute / metric / decimal}
; #@! TF.CreationDate,2023-02-20T20:30:59+03:00
; #@! TF.GenerationSoftware,Kicad,Pcbnew,(6.0.9)
; #@! TF.FileFunction,Plated,1,2,PTH
FMAT,2
METRIC
; #@! TA.AperFunction,Plated,PTH,ViaDrill
T1C0.400
; #@! TA.AperFunction,Plated,PTH,ComponentDrill
T2C0.700
; #@! TA.AperFunction,Plated,PTH,ComponentDrill
T3C0.800
; #@! TA.AperFunction,Plated,PTH,ComponentDrill
T4C0.889
; #@! TA.AperFunction,Plated,PTH,ComponentDrill
T5C0.900
; #@! TA.AperFunction,Plated,PTH,ComponentDrill
T6C0.950
; #@! TA.AperFunction,Plated,PTH,ComponentDrill
T7C1.000
; #@! TA.AperFunction,Plated,PTH,ComponentDrill
T8C1.020
; #@! TA.AperFunction,Plated,PTH,ComponentDrill
T9C1.100
%
G90
G05
T1
X144.46Y-111.89
T2
X126.04Y-104.61
X126.04Y-107.28
X127.39Y-56.79
X128.58Y-104.61
X128.58Y-107.28
X135.53Y-56.66
X135.84Y-64.32
X135.84Y-66.86
X135.85Y-75.69
X136.32Y-80.55
X136.32Y-83.09
X136.33Y-85.49
X136.33Y-88.03
X138.39Y-75.69
X140.65Y-93.18
X140.65Y-95.72
X140.75Y-88.64
X143.29Y-88.64
X145.59Y-78.22
X145.59Y-80.76
X147.55Y-90.72
X147.55Y-93.14
X148.83Y-78.26
X148.83Y-80.8
X152.63Y-90.72
X152.63Y-93.14
T3
X125.42Y-60.04
X125.42Y-62.54
X135.74Y-110.77
X136.29Y-93.21
X136.29Y-95.71
X137.55Y-98.85
X137.55Y-101.35
X138.28Y-105.69
X140.37Y-80.42
X140.37Y-83.29
X140.82Y-110.77
X142.87Y-80.42
X142.87Y-83.29
X146.69Y-69.21
X146.69Y-74.29
X147.45Y-85.38
X148.13Y-105.42
X148.17Y-114.56
X149.99Y-85.38
X150.67Y-110.5
X150.67Y-114.56
X151.77Y-71.75
X152.53Y-85.38
X152.67Y-78.38
X152.67Y-80.88
X153.21Y-105.42
X155.49Y-117.385
X157.99Y-117.385
T4
X140.462Y-63.246
X143.002Y-63.246
X145.542Y-63.246
X148.082Y-63.246
T5
X141.435Y-99.57
X143.975Y-99.57
X148.08Y-99.51
X150.62Y-99.51
T6
X137.35Y-119.935
X139.85Y-119.935
X142.35Y-119.935
X144.85Y-119.935
X147.35Y-119.935
X149.85Y-119.935
T7
X130.34Y-114.89
X130.34Y-117.43
X130.34Y-119.97
X135.82Y-72.81
X135.83Y-69.48
X140.9Y-72.81
X140.91Y-69.48
X141.995Y-57.53
X144.535Y-57.53
X147.075Y-57.53
X149.615Y-57.53
X152.155Y-57.53
T8
X131.687Y-65.299
X131.687Y-67.839
X131.687Y-70.379
X131.687Y-72.919
X131.687Y-75.459
X131.687Y-77.999
X131.687Y-80.539
X131.687Y-83.079
X131.687Y-85.619
X131.687Y-88.159
X131.687Y-90.699
X131.687Y-93.239
X131.687Y-95.779
X131.687Y-98.319
X131.687Y-100.859
X157.087Y-65.299
X157.087Y-67.839
X157.087Y-70.379
X157.087Y-72.919
X157.087Y-75.459
X157.087Y-77.999
X157.087Y-80.539
X157.087Y-83.079
X157.087Y-85.619
X157.087Y-88.159
X157.087Y-90.699
X157.087Y-93.239
X157.087Y-95.779
X157.087Y-98.319
X157.087Y-100.859
T9
X124.389Y-83.058
X124.389Y-85.598
X124.389Y-88.138
T0
M30
