%TF.GenerationSoftware,KiCad,Pcbnew,(6.0.9)*%
%TF.CreationDate,2023-02-20T20:31:01+03:00*%
%TF.ProjectId,ESP32_APRS,45535033-325f-4415-9052-532e6b696361,rev?*%
%TF.SameCoordinates,Original*%
%TF.FileFunction,Drillmap*%
%TF.FilePolarity,Positive*%
%FSLAX45Y45*%
G04 Gerber Fmt 4.5, Leading zero omitted, Abs format (unit mm)*
G04 Created by KiCad (PCBNEW (6.0.9)) date 2023-02-20 20:31:01*
%MOMM*%
%LPD*%
G01*
G04 APERTURE LIST*
%ADD10C,0.200000*%
%ADD11C,0.120000*%
%ADD12C,0.220000*%
%ADD13C,0.320000*%
G04 APERTURE END LIST*
D10*
X12000000Y-12500000D02*
X12000000Y-5500000D01*
X12000000Y-5500000D02*
X16200000Y-5500000D01*
X12000000Y-12500000D02*
X16200000Y-12500000D01*
X16205200Y-5500000D02*
X16200000Y-12500000D01*
D11*
X15085000Y-11733500D02*
X15205000Y-11853500D01*
X15205000Y-11733500D02*
X15085000Y-11853500D01*
D12*
X12459000Y-12108000D02*
G75*
G03*
X12459000Y-12108000I-110000J0D01*
G01*
X16044000Y-5770000D02*
G75*
G03*
X16044000Y-5770000I-110000J0D01*
G01*
D13*
X13828000Y-10740000D02*
X13828000Y-11060000D01*
X13668000Y-10900000D02*
X13988000Y-10900000D01*
X14846000Y-7015000D02*
X14846000Y-7335000D01*
X14686000Y-7175000D02*
X15006000Y-7175000D01*
X15067000Y-10561000D02*
X15067000Y-10881000D01*
X14907000Y-10721000D02*
X15227000Y-10721000D01*
D10*
X12247619Y-12820476D02*
X12247619Y-12620476D01*
X12295238Y-12620476D01*
X12323809Y-12630000D01*
X12342857Y-12649048D01*
X12352381Y-12668095D01*
X12361905Y-12706190D01*
X12361905Y-12734762D01*
X12352381Y-12772857D01*
X12342857Y-12791905D01*
X12323809Y-12810952D01*
X12295238Y-12820476D01*
X12247619Y-12820476D01*
X12447619Y-12820476D02*
X12447619Y-12687143D01*
X12447619Y-12725238D02*
X12457143Y-12706190D01*
X12466667Y-12696667D01*
X12485714Y-12687143D01*
X12504762Y-12687143D01*
X12571428Y-12820476D02*
X12571428Y-12687143D01*
X12571428Y-12620476D02*
X12561905Y-12630000D01*
X12571428Y-12639524D01*
X12580952Y-12630000D01*
X12571428Y-12620476D01*
X12571428Y-12639524D01*
X12695238Y-12820476D02*
X12676190Y-12810952D01*
X12666667Y-12791905D01*
X12666667Y-12620476D01*
X12800000Y-12820476D02*
X12780952Y-12810952D01*
X12771428Y-12791905D01*
X12771428Y-12620476D01*
X13028571Y-12820476D02*
X13028571Y-12620476D01*
X13095238Y-12763333D01*
X13161905Y-12620476D01*
X13161905Y-12820476D01*
X13342857Y-12820476D02*
X13342857Y-12715714D01*
X13333333Y-12696667D01*
X13314286Y-12687143D01*
X13276190Y-12687143D01*
X13257143Y-12696667D01*
X13342857Y-12810952D02*
X13323809Y-12820476D01*
X13276190Y-12820476D01*
X13257143Y-12810952D01*
X13247619Y-12791905D01*
X13247619Y-12772857D01*
X13257143Y-12753809D01*
X13276190Y-12744286D01*
X13323809Y-12744286D01*
X13342857Y-12734762D01*
X13438095Y-12687143D02*
X13438095Y-12887143D01*
X13438095Y-12696667D02*
X13457143Y-12687143D01*
X13495238Y-12687143D01*
X13514286Y-12696667D01*
X13523809Y-12706190D01*
X13533333Y-12725238D01*
X13533333Y-12782381D01*
X13523809Y-12801428D01*
X13514286Y-12810952D01*
X13495238Y-12820476D01*
X13457143Y-12820476D01*
X13438095Y-12810952D01*
X13619048Y-12801428D02*
X13628571Y-12810952D01*
X13619048Y-12820476D01*
X13609524Y-12810952D01*
X13619048Y-12801428D01*
X13619048Y-12820476D01*
X13619048Y-12696667D02*
X13628571Y-12706190D01*
X13619048Y-12715714D01*
X13609524Y-12706190D01*
X13619048Y-12696667D01*
X13619048Y-12715714D01*
D11*
X11870000Y-13090000D02*
X11990000Y-13210000D01*
X11990000Y-13090000D02*
X11870000Y-13210000D01*
D10*
X12352381Y-13240476D02*
X12238095Y-13240476D01*
X12295238Y-13240476D02*
X12295238Y-13040476D01*
X12276190Y-13069048D01*
X12257143Y-13088095D01*
X12238095Y-13097619D01*
X12438095Y-13221428D02*
X12447619Y-13230952D01*
X12438095Y-13240476D01*
X12428571Y-13230952D01*
X12438095Y-13221428D01*
X12438095Y-13240476D01*
X12523809Y-13059524D02*
X12533333Y-13050000D01*
X12552381Y-13040476D01*
X12600000Y-13040476D01*
X12619048Y-13050000D01*
X12628571Y-13059524D01*
X12638095Y-13078571D01*
X12638095Y-13097619D01*
X12628571Y-13126190D01*
X12514286Y-13240476D01*
X12638095Y-13240476D01*
X12761905Y-13040476D02*
X12780952Y-13040476D01*
X12800000Y-13050000D01*
X12809524Y-13059524D01*
X12819048Y-13078571D01*
X12828571Y-13116667D01*
X12828571Y-13164286D01*
X12819048Y-13202381D01*
X12809524Y-13221428D01*
X12800000Y-13230952D01*
X12780952Y-13240476D01*
X12761905Y-13240476D01*
X12742857Y-13230952D01*
X12733333Y-13221428D01*
X12723809Y-13202381D01*
X12714286Y-13164286D01*
X12714286Y-13116667D01*
X12723809Y-13078571D01*
X12733333Y-13059524D01*
X12742857Y-13050000D01*
X12761905Y-13040476D01*
X12952381Y-13040476D02*
X12971428Y-13040476D01*
X12990476Y-13050000D01*
X13000000Y-13059524D01*
X13009524Y-13078571D01*
X13019048Y-13116667D01*
X13019048Y-13164286D01*
X13009524Y-13202381D01*
X13000000Y-13221428D01*
X12990476Y-13230952D01*
X12971428Y-13240476D01*
X12952381Y-13240476D01*
X12933333Y-13230952D01*
X12923809Y-13221428D01*
X12914286Y-13202381D01*
X12904762Y-13164286D01*
X12904762Y-13116667D01*
X12914286Y-13078571D01*
X12923809Y-13059524D01*
X12933333Y-13050000D01*
X12952381Y-13040476D01*
X13104762Y-13240476D02*
X13104762Y-13107143D01*
X13104762Y-13126190D02*
X13114286Y-13116667D01*
X13133333Y-13107143D01*
X13161905Y-13107143D01*
X13180952Y-13116667D01*
X13190476Y-13135714D01*
X13190476Y-13240476D01*
X13190476Y-13135714D02*
X13200000Y-13116667D01*
X13219048Y-13107143D01*
X13247619Y-13107143D01*
X13266667Y-13116667D01*
X13276190Y-13135714D01*
X13276190Y-13240476D01*
X13371428Y-13240476D02*
X13371428Y-13107143D01*
X13371428Y-13126190D02*
X13380952Y-13116667D01*
X13400000Y-13107143D01*
X13428571Y-13107143D01*
X13447619Y-13116667D01*
X13457143Y-13135714D01*
X13457143Y-13240476D01*
X13457143Y-13135714D02*
X13466667Y-13116667D01*
X13485714Y-13107143D01*
X13514286Y-13107143D01*
X13533333Y-13116667D01*
X13542857Y-13135714D01*
X13542857Y-13240476D01*
X13933333Y-13030952D02*
X13761905Y-13288095D01*
X14190476Y-13040476D02*
X14209524Y-13040476D01*
X14228571Y-13050000D01*
X14238095Y-13059524D01*
X14247619Y-13078571D01*
X14257143Y-13116667D01*
X14257143Y-13164286D01*
X14247619Y-13202381D01*
X14238095Y-13221428D01*
X14228571Y-13230952D01*
X14209524Y-13240476D01*
X14190476Y-13240476D01*
X14171428Y-13230952D01*
X14161905Y-13221428D01*
X14152381Y-13202381D01*
X14142857Y-13164286D01*
X14142857Y-13116667D01*
X14152381Y-13078571D01*
X14161905Y-13059524D01*
X14171428Y-13050000D01*
X14190476Y-13040476D01*
X14342857Y-13221428D02*
X14352381Y-13230952D01*
X14342857Y-13240476D01*
X14333333Y-13230952D01*
X14342857Y-13221428D01*
X14342857Y-13240476D01*
X14476190Y-13040476D02*
X14495238Y-13040476D01*
X14514286Y-13050000D01*
X14523809Y-13059524D01*
X14533333Y-13078571D01*
X14542857Y-13116667D01*
X14542857Y-13164286D01*
X14533333Y-13202381D01*
X14523809Y-13221428D01*
X14514286Y-13230952D01*
X14495238Y-13240476D01*
X14476190Y-13240476D01*
X14457143Y-13230952D01*
X14447619Y-13221428D01*
X14438095Y-13202381D01*
X14428571Y-13164286D01*
X14428571Y-13116667D01*
X14438095Y-13078571D01*
X14447619Y-13059524D01*
X14457143Y-13050000D01*
X14476190Y-13040476D01*
X14714286Y-13107143D02*
X14714286Y-13240476D01*
X14666667Y-13030952D02*
X14619048Y-13173809D01*
X14742857Y-13173809D01*
X14800000Y-13040476D02*
X14933333Y-13040476D01*
X14847619Y-13240476D01*
X15000000Y-13059524D02*
X15009524Y-13050000D01*
X15028571Y-13040476D01*
X15076190Y-13040476D01*
X15095238Y-13050000D01*
X15104762Y-13059524D01*
X15114286Y-13078571D01*
X15114286Y-13097619D01*
X15104762Y-13126190D01*
X14990476Y-13240476D01*
X15114286Y-13240476D01*
X15190476Y-13040476D02*
X15190476Y-13078571D01*
X15266667Y-13040476D02*
X15266667Y-13078571D01*
X15561905Y-13316667D02*
X15552381Y-13307143D01*
X15533333Y-13278571D01*
X15523809Y-13259524D01*
X15514286Y-13230952D01*
X15504762Y-13183333D01*
X15504762Y-13145238D01*
X15514286Y-13097619D01*
X15523809Y-13069048D01*
X15533333Y-13050000D01*
X15552381Y-13021428D01*
X15561905Y-13011905D01*
X15742857Y-13240476D02*
X15628571Y-13240476D01*
X15685714Y-13240476D02*
X15685714Y-13040476D01*
X15666667Y-13069048D01*
X15647619Y-13088095D01*
X15628571Y-13097619D01*
X15980952Y-13240476D02*
X15980952Y-13040476D01*
X16066667Y-13240476D02*
X16066667Y-13135714D01*
X16057143Y-13116667D01*
X16038095Y-13107143D01*
X16009524Y-13107143D01*
X15990476Y-13116667D01*
X15980952Y-13126190D01*
X16190476Y-13240476D02*
X16171428Y-13230952D01*
X16161905Y-13221428D01*
X16152381Y-13202381D01*
X16152381Y-13145238D01*
X16161905Y-13126190D01*
X16171428Y-13116667D01*
X16190476Y-13107143D01*
X16219048Y-13107143D01*
X16238095Y-13116667D01*
X16247619Y-13126190D01*
X16257143Y-13145238D01*
X16257143Y-13202381D01*
X16247619Y-13221428D01*
X16238095Y-13230952D01*
X16219048Y-13240476D01*
X16190476Y-13240476D01*
X16371428Y-13240476D02*
X16352381Y-13230952D01*
X16342857Y-13211905D01*
X16342857Y-13040476D01*
X16523809Y-13230952D02*
X16504762Y-13240476D01*
X16466667Y-13240476D01*
X16447619Y-13230952D01*
X16438095Y-13211905D01*
X16438095Y-13135714D01*
X16447619Y-13116667D01*
X16466667Y-13107143D01*
X16504762Y-13107143D01*
X16523809Y-13116667D01*
X16533333Y-13135714D01*
X16533333Y-13154762D01*
X16438095Y-13173809D01*
X16600000Y-13316667D02*
X16609524Y-13307143D01*
X16628571Y-13278571D01*
X16638095Y-13259524D01*
X16647619Y-13230952D01*
X16657143Y-13183333D01*
X16657143Y-13145238D01*
X16647619Y-13097619D01*
X16638095Y-13069048D01*
X16628571Y-13050000D01*
X16609524Y-13021428D01*
X16600000Y-13011905D01*
X16961905Y-13316667D02*
X16952381Y-13307143D01*
X16933333Y-13278571D01*
X16923810Y-13259524D01*
X16914286Y-13230952D01*
X16904762Y-13183333D01*
X16904762Y-13145238D01*
X16914286Y-13097619D01*
X16923810Y-13069048D01*
X16933333Y-13050000D01*
X16952381Y-13021428D01*
X16961905Y-13011905D01*
X17038095Y-13107143D02*
X17038095Y-13240476D01*
X17038095Y-13126190D02*
X17047619Y-13116667D01*
X17066667Y-13107143D01*
X17095238Y-13107143D01*
X17114286Y-13116667D01*
X17123810Y-13135714D01*
X17123810Y-13240476D01*
X17247619Y-13240476D02*
X17228571Y-13230952D01*
X17219048Y-13221428D01*
X17209524Y-13202381D01*
X17209524Y-13145238D01*
X17219048Y-13126190D01*
X17228571Y-13116667D01*
X17247619Y-13107143D01*
X17276190Y-13107143D01*
X17295238Y-13116667D01*
X17304762Y-13126190D01*
X17314286Y-13145238D01*
X17314286Y-13202381D01*
X17304762Y-13221428D01*
X17295238Y-13230952D01*
X17276190Y-13240476D01*
X17247619Y-13240476D01*
X17371429Y-13107143D02*
X17447619Y-13107143D01*
X17400000Y-13040476D02*
X17400000Y-13211905D01*
X17409524Y-13230952D01*
X17428571Y-13240476D01*
X17447619Y-13240476D01*
X17666667Y-13107143D02*
X17666667Y-13307143D01*
X17666667Y-13116667D02*
X17685714Y-13107143D01*
X17723810Y-13107143D01*
X17742857Y-13116667D01*
X17752381Y-13126190D01*
X17761905Y-13145238D01*
X17761905Y-13202381D01*
X17752381Y-13221428D01*
X17742857Y-13230952D01*
X17723810Y-13240476D01*
X17685714Y-13240476D01*
X17666667Y-13230952D01*
X17876190Y-13240476D02*
X17857143Y-13230952D01*
X17847619Y-13211905D01*
X17847619Y-13040476D01*
X18038095Y-13240476D02*
X18038095Y-13135714D01*
X18028571Y-13116667D01*
X18009524Y-13107143D01*
X17971429Y-13107143D01*
X17952381Y-13116667D01*
X18038095Y-13230952D02*
X18019048Y-13240476D01*
X17971429Y-13240476D01*
X17952381Y-13230952D01*
X17942857Y-13211905D01*
X17942857Y-13192857D01*
X17952381Y-13173809D01*
X17971429Y-13164286D01*
X18019048Y-13164286D01*
X18038095Y-13154762D01*
X18104762Y-13107143D02*
X18180952Y-13107143D01*
X18133333Y-13040476D02*
X18133333Y-13211905D01*
X18142857Y-13230952D01*
X18161905Y-13240476D01*
X18180952Y-13240476D01*
X18323810Y-13230952D02*
X18304762Y-13240476D01*
X18266667Y-13240476D01*
X18247619Y-13230952D01*
X18238095Y-13211905D01*
X18238095Y-13135714D01*
X18247619Y-13116667D01*
X18266667Y-13107143D01*
X18304762Y-13107143D01*
X18323810Y-13116667D01*
X18333333Y-13135714D01*
X18333333Y-13154762D01*
X18238095Y-13173809D01*
X18504762Y-13240476D02*
X18504762Y-13040476D01*
X18504762Y-13230952D02*
X18485714Y-13240476D01*
X18447619Y-13240476D01*
X18428571Y-13230952D01*
X18419048Y-13221428D01*
X18409524Y-13202381D01*
X18409524Y-13145238D01*
X18419048Y-13126190D01*
X18428571Y-13116667D01*
X18447619Y-13107143D01*
X18485714Y-13107143D01*
X18504762Y-13116667D01*
X18580952Y-13316667D02*
X18590476Y-13307143D01*
X18609524Y-13278571D01*
X18619048Y-13259524D01*
X18628571Y-13230952D01*
X18638095Y-13183333D01*
X18638095Y-13145238D01*
X18628571Y-13097619D01*
X18619048Y-13069048D01*
X18609524Y-13050000D01*
X18590476Y-13021428D01*
X18580952Y-13011905D01*
X11990000Y-13414000D02*
G75*
G03*
X11990000Y-13414000I-100000J0D01*
G01*
X12238095Y-13323524D02*
X12247619Y-13314000D01*
X12266667Y-13304476D01*
X12314286Y-13304476D01*
X12333333Y-13314000D01*
X12342857Y-13323524D01*
X12352381Y-13342571D01*
X12352381Y-13361619D01*
X12342857Y-13390190D01*
X12228571Y-13504476D01*
X12352381Y-13504476D01*
X12438095Y-13485428D02*
X12447619Y-13494952D01*
X12438095Y-13504476D01*
X12428571Y-13494952D01*
X12438095Y-13485428D01*
X12438095Y-13504476D01*
X12523809Y-13323524D02*
X12533333Y-13314000D01*
X12552381Y-13304476D01*
X12600000Y-13304476D01*
X12619048Y-13314000D01*
X12628571Y-13323524D01*
X12638095Y-13342571D01*
X12638095Y-13361619D01*
X12628571Y-13390190D01*
X12514286Y-13504476D01*
X12638095Y-13504476D01*
X12761905Y-13304476D02*
X12780952Y-13304476D01*
X12800000Y-13314000D01*
X12809524Y-13323524D01*
X12819048Y-13342571D01*
X12828571Y-13380667D01*
X12828571Y-13428286D01*
X12819048Y-13466381D01*
X12809524Y-13485428D01*
X12800000Y-13494952D01*
X12780952Y-13504476D01*
X12761905Y-13504476D01*
X12742857Y-13494952D01*
X12733333Y-13485428D01*
X12723809Y-13466381D01*
X12714286Y-13428286D01*
X12714286Y-13380667D01*
X12723809Y-13342571D01*
X12733333Y-13323524D01*
X12742857Y-13314000D01*
X12761905Y-13304476D01*
X12952381Y-13304476D02*
X12971428Y-13304476D01*
X12990476Y-13314000D01*
X13000000Y-13323524D01*
X13009524Y-13342571D01*
X13019048Y-13380667D01*
X13019048Y-13428286D01*
X13009524Y-13466381D01*
X13000000Y-13485428D01*
X12990476Y-13494952D01*
X12971428Y-13504476D01*
X12952381Y-13504476D01*
X12933333Y-13494952D01*
X12923809Y-13485428D01*
X12914286Y-13466381D01*
X12904762Y-13428286D01*
X12904762Y-13380667D01*
X12914286Y-13342571D01*
X12923809Y-13323524D01*
X12933333Y-13314000D01*
X12952381Y-13304476D01*
X13104762Y-13504476D02*
X13104762Y-13371143D01*
X13104762Y-13390190D02*
X13114286Y-13380667D01*
X13133333Y-13371143D01*
X13161905Y-13371143D01*
X13180952Y-13380667D01*
X13190476Y-13399714D01*
X13190476Y-13504476D01*
X13190476Y-13399714D02*
X13200000Y-13380667D01*
X13219048Y-13371143D01*
X13247619Y-13371143D01*
X13266667Y-13380667D01*
X13276190Y-13399714D01*
X13276190Y-13504476D01*
X13371428Y-13504476D02*
X13371428Y-13371143D01*
X13371428Y-13390190D02*
X13380952Y-13380667D01*
X13400000Y-13371143D01*
X13428571Y-13371143D01*
X13447619Y-13380667D01*
X13457143Y-13399714D01*
X13457143Y-13504476D01*
X13457143Y-13399714D02*
X13466667Y-13380667D01*
X13485714Y-13371143D01*
X13514286Y-13371143D01*
X13533333Y-13380667D01*
X13542857Y-13399714D01*
X13542857Y-13504476D01*
X13933333Y-13294952D02*
X13761905Y-13552095D01*
X14190476Y-13304476D02*
X14209524Y-13304476D01*
X14228571Y-13314000D01*
X14238095Y-13323524D01*
X14247619Y-13342571D01*
X14257143Y-13380667D01*
X14257143Y-13428286D01*
X14247619Y-13466381D01*
X14238095Y-13485428D01*
X14228571Y-13494952D01*
X14209524Y-13504476D01*
X14190476Y-13504476D01*
X14171428Y-13494952D01*
X14161905Y-13485428D01*
X14152381Y-13466381D01*
X14142857Y-13428286D01*
X14142857Y-13380667D01*
X14152381Y-13342571D01*
X14161905Y-13323524D01*
X14171428Y-13314000D01*
X14190476Y-13304476D01*
X14342857Y-13485428D02*
X14352381Y-13494952D01*
X14342857Y-13504476D01*
X14333333Y-13494952D01*
X14342857Y-13485428D01*
X14342857Y-13504476D01*
X14476190Y-13304476D02*
X14495238Y-13304476D01*
X14514286Y-13314000D01*
X14523809Y-13323524D01*
X14533333Y-13342571D01*
X14542857Y-13380667D01*
X14542857Y-13428286D01*
X14533333Y-13466381D01*
X14523809Y-13485428D01*
X14514286Y-13494952D01*
X14495238Y-13504476D01*
X14476190Y-13504476D01*
X14457143Y-13494952D01*
X14447619Y-13485428D01*
X14438095Y-13466381D01*
X14428571Y-13428286D01*
X14428571Y-13380667D01*
X14438095Y-13342571D01*
X14447619Y-13323524D01*
X14457143Y-13314000D01*
X14476190Y-13304476D01*
X14657143Y-13390190D02*
X14638095Y-13380667D01*
X14628571Y-13371143D01*
X14619048Y-13352095D01*
X14619048Y-13342571D01*
X14628571Y-13323524D01*
X14638095Y-13314000D01*
X14657143Y-13304476D01*
X14695238Y-13304476D01*
X14714286Y-13314000D01*
X14723809Y-13323524D01*
X14733333Y-13342571D01*
X14733333Y-13352095D01*
X14723809Y-13371143D01*
X14714286Y-13380667D01*
X14695238Y-13390190D01*
X14657143Y-13390190D01*
X14638095Y-13399714D01*
X14628571Y-13409238D01*
X14619048Y-13428286D01*
X14619048Y-13466381D01*
X14628571Y-13485428D01*
X14638095Y-13494952D01*
X14657143Y-13504476D01*
X14695238Y-13504476D01*
X14714286Y-13494952D01*
X14723809Y-13485428D01*
X14733333Y-13466381D01*
X14733333Y-13428286D01*
X14723809Y-13409238D01*
X14714286Y-13399714D01*
X14695238Y-13390190D01*
X14904762Y-13304476D02*
X14866667Y-13304476D01*
X14847619Y-13314000D01*
X14838095Y-13323524D01*
X14819048Y-13352095D01*
X14809524Y-13390190D01*
X14809524Y-13466381D01*
X14819048Y-13485428D01*
X14828571Y-13494952D01*
X14847619Y-13504476D01*
X14885714Y-13504476D01*
X14904762Y-13494952D01*
X14914286Y-13485428D01*
X14923809Y-13466381D01*
X14923809Y-13418762D01*
X14914286Y-13399714D01*
X14904762Y-13390190D01*
X14885714Y-13380667D01*
X14847619Y-13380667D01*
X14828571Y-13390190D01*
X14819048Y-13399714D01*
X14809524Y-13418762D01*
X15095238Y-13304476D02*
X15057143Y-13304476D01*
X15038095Y-13314000D01*
X15028571Y-13323524D01*
X15009524Y-13352095D01*
X15000000Y-13390190D01*
X15000000Y-13466381D01*
X15009524Y-13485428D01*
X15019048Y-13494952D01*
X15038095Y-13504476D01*
X15076190Y-13504476D01*
X15095238Y-13494952D01*
X15104762Y-13485428D01*
X15114286Y-13466381D01*
X15114286Y-13418762D01*
X15104762Y-13399714D01*
X15095238Y-13390190D01*
X15076190Y-13380667D01*
X15038095Y-13380667D01*
X15019048Y-13390190D01*
X15009524Y-13399714D01*
X15000000Y-13418762D01*
X15190476Y-13304476D02*
X15190476Y-13342571D01*
X15266667Y-13304476D02*
X15266667Y-13342571D01*
X15561905Y-13580667D02*
X15552381Y-13571143D01*
X15533333Y-13542571D01*
X15523809Y-13523524D01*
X15514286Y-13494952D01*
X15504762Y-13447333D01*
X15504762Y-13409238D01*
X15514286Y-13361619D01*
X15523809Y-13333048D01*
X15533333Y-13314000D01*
X15552381Y-13285428D01*
X15561905Y-13275905D01*
X15628571Y-13323524D02*
X15638095Y-13314000D01*
X15657143Y-13304476D01*
X15704762Y-13304476D01*
X15723809Y-13314000D01*
X15733333Y-13323524D01*
X15742857Y-13342571D01*
X15742857Y-13361619D01*
X15733333Y-13390190D01*
X15619048Y-13504476D01*
X15742857Y-13504476D01*
X15980952Y-13504476D02*
X15980952Y-13304476D01*
X16066667Y-13504476D02*
X16066667Y-13399714D01*
X16057143Y-13380667D01*
X16038095Y-13371143D01*
X16009524Y-13371143D01*
X15990476Y-13380667D01*
X15980952Y-13390190D01*
X16190476Y-13504476D02*
X16171428Y-13494952D01*
X16161905Y-13485428D01*
X16152381Y-13466381D01*
X16152381Y-13409238D01*
X16161905Y-13390190D01*
X16171428Y-13380667D01*
X16190476Y-13371143D01*
X16219048Y-13371143D01*
X16238095Y-13380667D01*
X16247619Y-13390190D01*
X16257143Y-13409238D01*
X16257143Y-13466381D01*
X16247619Y-13485428D01*
X16238095Y-13494952D01*
X16219048Y-13504476D01*
X16190476Y-13504476D01*
X16371428Y-13504476D02*
X16352381Y-13494952D01*
X16342857Y-13475905D01*
X16342857Y-13304476D01*
X16523809Y-13494952D02*
X16504762Y-13504476D01*
X16466667Y-13504476D01*
X16447619Y-13494952D01*
X16438095Y-13475905D01*
X16438095Y-13399714D01*
X16447619Y-13380667D01*
X16466667Y-13371143D01*
X16504762Y-13371143D01*
X16523809Y-13380667D01*
X16533333Y-13399714D01*
X16533333Y-13418762D01*
X16438095Y-13437809D01*
X16609524Y-13494952D02*
X16628571Y-13504476D01*
X16666667Y-13504476D01*
X16685714Y-13494952D01*
X16695238Y-13475905D01*
X16695238Y-13466381D01*
X16685714Y-13447333D01*
X16666667Y-13437809D01*
X16638095Y-13437809D01*
X16619048Y-13428286D01*
X16609524Y-13409238D01*
X16609524Y-13399714D01*
X16619048Y-13380667D01*
X16638095Y-13371143D01*
X16666667Y-13371143D01*
X16685714Y-13380667D01*
X16761905Y-13580667D02*
X16771428Y-13571143D01*
X16790476Y-13542571D01*
X16800000Y-13523524D01*
X16809524Y-13494952D01*
X16819048Y-13447333D01*
X16819048Y-13409238D01*
X16809524Y-13361619D01*
X16800000Y-13333048D01*
X16790476Y-13314000D01*
X16771428Y-13285428D01*
X16761905Y-13275905D01*
X17123810Y-13580667D02*
X17114286Y-13571143D01*
X17095238Y-13542571D01*
X17085714Y-13523524D01*
X17076190Y-13494952D01*
X17066667Y-13447333D01*
X17066667Y-13409238D01*
X17076190Y-13361619D01*
X17085714Y-13333048D01*
X17095238Y-13314000D01*
X17114286Y-13285428D01*
X17123810Y-13275905D01*
X17200000Y-13371143D02*
X17200000Y-13504476D01*
X17200000Y-13390190D02*
X17209524Y-13380667D01*
X17228571Y-13371143D01*
X17257143Y-13371143D01*
X17276190Y-13380667D01*
X17285714Y-13399714D01*
X17285714Y-13504476D01*
X17409524Y-13504476D02*
X17390476Y-13494952D01*
X17380952Y-13485428D01*
X17371429Y-13466381D01*
X17371429Y-13409238D01*
X17380952Y-13390190D01*
X17390476Y-13380667D01*
X17409524Y-13371143D01*
X17438095Y-13371143D01*
X17457143Y-13380667D01*
X17466667Y-13390190D01*
X17476190Y-13409238D01*
X17476190Y-13466381D01*
X17466667Y-13485428D01*
X17457143Y-13494952D01*
X17438095Y-13504476D01*
X17409524Y-13504476D01*
X17533333Y-13371143D02*
X17609524Y-13371143D01*
X17561905Y-13304476D02*
X17561905Y-13475905D01*
X17571429Y-13494952D01*
X17590476Y-13504476D01*
X17609524Y-13504476D01*
X17828571Y-13371143D02*
X17828571Y-13571143D01*
X17828571Y-13380667D02*
X17847619Y-13371143D01*
X17885714Y-13371143D01*
X17904762Y-13380667D01*
X17914286Y-13390190D01*
X17923810Y-13409238D01*
X17923810Y-13466381D01*
X17914286Y-13485428D01*
X17904762Y-13494952D01*
X17885714Y-13504476D01*
X17847619Y-13504476D01*
X17828571Y-13494952D01*
X18038095Y-13504476D02*
X18019048Y-13494952D01*
X18009524Y-13475905D01*
X18009524Y-13304476D01*
X18200000Y-13504476D02*
X18200000Y-13399714D01*
X18190476Y-13380667D01*
X18171429Y-13371143D01*
X18133333Y-13371143D01*
X18114286Y-13380667D01*
X18200000Y-13494952D02*
X18180952Y-13504476D01*
X18133333Y-13504476D01*
X18114286Y-13494952D01*
X18104762Y-13475905D01*
X18104762Y-13456857D01*
X18114286Y-13437809D01*
X18133333Y-13428286D01*
X18180952Y-13428286D01*
X18200000Y-13418762D01*
X18266667Y-13371143D02*
X18342857Y-13371143D01*
X18295238Y-13304476D02*
X18295238Y-13475905D01*
X18304762Y-13494952D01*
X18323810Y-13504476D01*
X18342857Y-13504476D01*
X18485714Y-13494952D02*
X18466667Y-13504476D01*
X18428571Y-13504476D01*
X18409524Y-13494952D01*
X18400000Y-13475905D01*
X18400000Y-13399714D01*
X18409524Y-13380667D01*
X18428571Y-13371143D01*
X18466667Y-13371143D01*
X18485714Y-13380667D01*
X18495238Y-13399714D01*
X18495238Y-13418762D01*
X18400000Y-13437809D01*
X18666667Y-13504476D02*
X18666667Y-13304476D01*
X18666667Y-13494952D02*
X18647619Y-13504476D01*
X18609524Y-13504476D01*
X18590476Y-13494952D01*
X18580952Y-13485428D01*
X18571429Y-13466381D01*
X18571429Y-13409238D01*
X18580952Y-13390190D01*
X18590476Y-13380667D01*
X18609524Y-13371143D01*
X18647619Y-13371143D01*
X18666667Y-13380667D01*
X18742857Y-13580667D02*
X18752381Y-13571143D01*
X18771429Y-13542571D01*
X18780952Y-13523524D01*
X18790476Y-13494952D01*
X18800000Y-13447333D01*
X18800000Y-13409238D01*
X18790476Y-13361619D01*
X18780952Y-13333048D01*
X18771429Y-13314000D01*
X18752381Y-13285428D01*
X18742857Y-13275905D01*
X11890000Y-13634000D02*
X11890000Y-13834000D01*
X11790000Y-13734000D02*
X11990000Y-13734000D01*
X12228571Y-13624476D02*
X12352381Y-13624476D01*
X12285714Y-13700667D01*
X12314286Y-13700667D01*
X12333333Y-13710190D01*
X12342857Y-13719714D01*
X12352381Y-13738762D01*
X12352381Y-13786381D01*
X12342857Y-13805428D01*
X12333333Y-13814952D01*
X12314286Y-13824476D01*
X12257143Y-13824476D01*
X12238095Y-13814952D01*
X12228571Y-13805428D01*
X12438095Y-13805428D02*
X12447619Y-13814952D01*
X12438095Y-13824476D01*
X12428571Y-13814952D01*
X12438095Y-13805428D01*
X12438095Y-13824476D01*
X12523809Y-13643524D02*
X12533333Y-13634000D01*
X12552381Y-13624476D01*
X12600000Y-13624476D01*
X12619048Y-13634000D01*
X12628571Y-13643524D01*
X12638095Y-13662571D01*
X12638095Y-13681619D01*
X12628571Y-13710190D01*
X12514286Y-13824476D01*
X12638095Y-13824476D01*
X12761905Y-13624476D02*
X12780952Y-13624476D01*
X12800000Y-13634000D01*
X12809524Y-13643524D01*
X12819048Y-13662571D01*
X12828571Y-13700667D01*
X12828571Y-13748286D01*
X12819048Y-13786381D01*
X12809524Y-13805428D01*
X12800000Y-13814952D01*
X12780952Y-13824476D01*
X12761905Y-13824476D01*
X12742857Y-13814952D01*
X12733333Y-13805428D01*
X12723809Y-13786381D01*
X12714286Y-13748286D01*
X12714286Y-13700667D01*
X12723809Y-13662571D01*
X12733333Y-13643524D01*
X12742857Y-13634000D01*
X12761905Y-13624476D01*
X12952381Y-13624476D02*
X12971428Y-13624476D01*
X12990476Y-13634000D01*
X13000000Y-13643524D01*
X13009524Y-13662571D01*
X13019048Y-13700667D01*
X13019048Y-13748286D01*
X13009524Y-13786381D01*
X13000000Y-13805428D01*
X12990476Y-13814952D01*
X12971428Y-13824476D01*
X12952381Y-13824476D01*
X12933333Y-13814952D01*
X12923809Y-13805428D01*
X12914286Y-13786381D01*
X12904762Y-13748286D01*
X12904762Y-13700667D01*
X12914286Y-13662571D01*
X12923809Y-13643524D01*
X12933333Y-13634000D01*
X12952381Y-13624476D01*
X13104762Y-13824476D02*
X13104762Y-13691143D01*
X13104762Y-13710190D02*
X13114286Y-13700667D01*
X13133333Y-13691143D01*
X13161905Y-13691143D01*
X13180952Y-13700667D01*
X13190476Y-13719714D01*
X13190476Y-13824476D01*
X13190476Y-13719714D02*
X13200000Y-13700667D01*
X13219048Y-13691143D01*
X13247619Y-13691143D01*
X13266667Y-13700667D01*
X13276190Y-13719714D01*
X13276190Y-13824476D01*
X13371428Y-13824476D02*
X13371428Y-13691143D01*
X13371428Y-13710190D02*
X13380952Y-13700667D01*
X13400000Y-13691143D01*
X13428571Y-13691143D01*
X13447619Y-13700667D01*
X13457143Y-13719714D01*
X13457143Y-13824476D01*
X13457143Y-13719714D02*
X13466667Y-13700667D01*
X13485714Y-13691143D01*
X13514286Y-13691143D01*
X13533333Y-13700667D01*
X13542857Y-13719714D01*
X13542857Y-13824476D01*
X13933333Y-13614952D02*
X13761905Y-13872095D01*
X14190476Y-13624476D02*
X14209524Y-13624476D01*
X14228571Y-13634000D01*
X14238095Y-13643524D01*
X14247619Y-13662571D01*
X14257143Y-13700667D01*
X14257143Y-13748286D01*
X14247619Y-13786381D01*
X14238095Y-13805428D01*
X14228571Y-13814952D01*
X14209524Y-13824476D01*
X14190476Y-13824476D01*
X14171428Y-13814952D01*
X14161905Y-13805428D01*
X14152381Y-13786381D01*
X14142857Y-13748286D01*
X14142857Y-13700667D01*
X14152381Y-13662571D01*
X14161905Y-13643524D01*
X14171428Y-13634000D01*
X14190476Y-13624476D01*
X14342857Y-13805428D02*
X14352381Y-13814952D01*
X14342857Y-13824476D01*
X14333333Y-13814952D01*
X14342857Y-13805428D01*
X14342857Y-13824476D01*
X14542857Y-13824476D02*
X14428571Y-13824476D01*
X14485714Y-13824476D02*
X14485714Y-13624476D01*
X14466667Y-13653048D01*
X14447619Y-13672095D01*
X14428571Y-13681619D01*
X14619048Y-13643524D02*
X14628571Y-13634000D01*
X14647619Y-13624476D01*
X14695238Y-13624476D01*
X14714286Y-13634000D01*
X14723809Y-13643524D01*
X14733333Y-13662571D01*
X14733333Y-13681619D01*
X14723809Y-13710190D01*
X14609524Y-13824476D01*
X14733333Y-13824476D01*
X14904762Y-13624476D02*
X14866667Y-13624476D01*
X14847619Y-13634000D01*
X14838095Y-13643524D01*
X14819048Y-13672095D01*
X14809524Y-13710190D01*
X14809524Y-13786381D01*
X14819048Y-13805428D01*
X14828571Y-13814952D01*
X14847619Y-13824476D01*
X14885714Y-13824476D01*
X14904762Y-13814952D01*
X14914286Y-13805428D01*
X14923809Y-13786381D01*
X14923809Y-13738762D01*
X14914286Y-13719714D01*
X14904762Y-13710190D01*
X14885714Y-13700667D01*
X14847619Y-13700667D01*
X14828571Y-13710190D01*
X14819048Y-13719714D01*
X14809524Y-13738762D01*
X15047619Y-13624476D02*
X15066667Y-13624476D01*
X15085714Y-13634000D01*
X15095238Y-13643524D01*
X15104762Y-13662571D01*
X15114286Y-13700667D01*
X15114286Y-13748286D01*
X15104762Y-13786381D01*
X15095238Y-13805428D01*
X15085714Y-13814952D01*
X15066667Y-13824476D01*
X15047619Y-13824476D01*
X15028571Y-13814952D01*
X15019048Y-13805428D01*
X15009524Y-13786381D01*
X15000000Y-13748286D01*
X15000000Y-13700667D01*
X15009524Y-13662571D01*
X15019048Y-13643524D01*
X15028571Y-13634000D01*
X15047619Y-13624476D01*
X15190476Y-13624476D02*
X15190476Y-13662571D01*
X15266667Y-13624476D02*
X15266667Y-13662571D01*
X15561905Y-13900667D02*
X15552381Y-13891143D01*
X15533333Y-13862571D01*
X15523809Y-13843524D01*
X15514286Y-13814952D01*
X15504762Y-13767333D01*
X15504762Y-13729238D01*
X15514286Y-13681619D01*
X15523809Y-13653048D01*
X15533333Y-13634000D01*
X15552381Y-13605428D01*
X15561905Y-13595905D01*
X15619048Y-13624476D02*
X15742857Y-13624476D01*
X15676190Y-13700667D01*
X15704762Y-13700667D01*
X15723809Y-13710190D01*
X15733333Y-13719714D01*
X15742857Y-13738762D01*
X15742857Y-13786381D01*
X15733333Y-13805428D01*
X15723809Y-13814952D01*
X15704762Y-13824476D01*
X15647619Y-13824476D01*
X15628571Y-13814952D01*
X15619048Y-13805428D01*
X15980952Y-13824476D02*
X15980952Y-13624476D01*
X16066667Y-13824476D02*
X16066667Y-13719714D01*
X16057143Y-13700667D01*
X16038095Y-13691143D01*
X16009524Y-13691143D01*
X15990476Y-13700667D01*
X15980952Y-13710190D01*
X16190476Y-13824476D02*
X16171428Y-13814952D01*
X16161905Y-13805428D01*
X16152381Y-13786381D01*
X16152381Y-13729238D01*
X16161905Y-13710190D01*
X16171428Y-13700667D01*
X16190476Y-13691143D01*
X16219048Y-13691143D01*
X16238095Y-13700667D01*
X16247619Y-13710190D01*
X16257143Y-13729238D01*
X16257143Y-13786381D01*
X16247619Y-13805428D01*
X16238095Y-13814952D01*
X16219048Y-13824476D01*
X16190476Y-13824476D01*
X16371428Y-13824476D02*
X16352381Y-13814952D01*
X16342857Y-13795905D01*
X16342857Y-13624476D01*
X16523809Y-13814952D02*
X16504762Y-13824476D01*
X16466667Y-13824476D01*
X16447619Y-13814952D01*
X16438095Y-13795905D01*
X16438095Y-13719714D01*
X16447619Y-13700667D01*
X16466667Y-13691143D01*
X16504762Y-13691143D01*
X16523809Y-13700667D01*
X16533333Y-13719714D01*
X16533333Y-13738762D01*
X16438095Y-13757809D01*
X16609524Y-13814952D02*
X16628571Y-13824476D01*
X16666667Y-13824476D01*
X16685714Y-13814952D01*
X16695238Y-13795905D01*
X16695238Y-13786381D01*
X16685714Y-13767333D01*
X16666667Y-13757809D01*
X16638095Y-13757809D01*
X16619048Y-13748286D01*
X16609524Y-13729238D01*
X16609524Y-13719714D01*
X16619048Y-13700667D01*
X16638095Y-13691143D01*
X16666667Y-13691143D01*
X16685714Y-13700667D01*
X16761905Y-13900667D02*
X16771428Y-13891143D01*
X16790476Y-13862571D01*
X16800000Y-13843524D01*
X16809524Y-13814952D01*
X16819048Y-13767333D01*
X16819048Y-13729238D01*
X16809524Y-13681619D01*
X16800000Y-13653048D01*
X16790476Y-13634000D01*
X16771428Y-13605428D01*
X16761905Y-13595905D01*
X17123810Y-13900667D02*
X17114286Y-13891143D01*
X17095238Y-13862571D01*
X17085714Y-13843524D01*
X17076190Y-13814952D01*
X17066667Y-13767333D01*
X17066667Y-13729238D01*
X17076190Y-13681619D01*
X17085714Y-13653048D01*
X17095238Y-13634000D01*
X17114286Y-13605428D01*
X17123810Y-13595905D01*
X17200000Y-13691143D02*
X17200000Y-13824476D01*
X17200000Y-13710190D02*
X17209524Y-13700667D01*
X17228571Y-13691143D01*
X17257143Y-13691143D01*
X17276190Y-13700667D01*
X17285714Y-13719714D01*
X17285714Y-13824476D01*
X17409524Y-13824476D02*
X17390476Y-13814952D01*
X17380952Y-13805428D01*
X17371429Y-13786381D01*
X17371429Y-13729238D01*
X17380952Y-13710190D01*
X17390476Y-13700667D01*
X17409524Y-13691143D01*
X17438095Y-13691143D01*
X17457143Y-13700667D01*
X17466667Y-13710190D01*
X17476190Y-13729238D01*
X17476190Y-13786381D01*
X17466667Y-13805428D01*
X17457143Y-13814952D01*
X17438095Y-13824476D01*
X17409524Y-13824476D01*
X17533333Y-13691143D02*
X17609524Y-13691143D01*
X17561905Y-13624476D02*
X17561905Y-13795905D01*
X17571429Y-13814952D01*
X17590476Y-13824476D01*
X17609524Y-13824476D01*
X17828571Y-13691143D02*
X17828571Y-13891143D01*
X17828571Y-13700667D02*
X17847619Y-13691143D01*
X17885714Y-13691143D01*
X17904762Y-13700667D01*
X17914286Y-13710190D01*
X17923810Y-13729238D01*
X17923810Y-13786381D01*
X17914286Y-13805428D01*
X17904762Y-13814952D01*
X17885714Y-13824476D01*
X17847619Y-13824476D01*
X17828571Y-13814952D01*
X18038095Y-13824476D02*
X18019048Y-13814952D01*
X18009524Y-13795905D01*
X18009524Y-13624476D01*
X18200000Y-13824476D02*
X18200000Y-13719714D01*
X18190476Y-13700667D01*
X18171429Y-13691143D01*
X18133333Y-13691143D01*
X18114286Y-13700667D01*
X18200000Y-13814952D02*
X18180952Y-13824476D01*
X18133333Y-13824476D01*
X18114286Y-13814952D01*
X18104762Y-13795905D01*
X18104762Y-13776857D01*
X18114286Y-13757809D01*
X18133333Y-13748286D01*
X18180952Y-13748286D01*
X18200000Y-13738762D01*
X18266667Y-13691143D02*
X18342857Y-13691143D01*
X18295238Y-13624476D02*
X18295238Y-13795905D01*
X18304762Y-13814952D01*
X18323810Y-13824476D01*
X18342857Y-13824476D01*
X18485714Y-13814952D02*
X18466667Y-13824476D01*
X18428571Y-13824476D01*
X18409524Y-13814952D01*
X18400000Y-13795905D01*
X18400000Y-13719714D01*
X18409524Y-13700667D01*
X18428571Y-13691143D01*
X18466667Y-13691143D01*
X18485714Y-13700667D01*
X18495238Y-13719714D01*
X18495238Y-13738762D01*
X18400000Y-13757809D01*
X18666667Y-13824476D02*
X18666667Y-13624476D01*
X18666667Y-13814952D02*
X18647619Y-13824476D01*
X18609524Y-13824476D01*
X18590476Y-13814952D01*
X18580952Y-13805428D01*
X18571429Y-13786381D01*
X18571429Y-13729238D01*
X18580952Y-13710190D01*
X18590476Y-13700667D01*
X18609524Y-13691143D01*
X18647619Y-13691143D01*
X18666667Y-13700667D01*
X18742857Y-13900667D02*
X18752381Y-13891143D01*
X18771429Y-13862571D01*
X18780952Y-13843524D01*
X18790476Y-13814952D01*
X18800000Y-13767333D01*
X18800000Y-13729238D01*
X18790476Y-13681619D01*
X18780952Y-13653048D01*
X18771429Y-13634000D01*
X18752381Y-13605428D01*
X18742857Y-13595905D01*
M02*
