%TF.GenerationSoftware,KiCad,Pcbnew,(6.0.9)*%
%TF.CreationDate,2023-02-20T20:31:07+03:00*%
%TF.ProjectId,ESP32_APRS,45535033-325f-4415-9052-532e6b696361,rev?*%
%TF.SameCoordinates,Original*%
%TF.FileFunction,Legend,Bot*%
%TF.FilePolarity,Positive*%
%FSLAX46Y46*%
G04 Gerber Fmt 4.6, Leading zero omitted, Abs format (unit mm)*
G04 Created by KiCad (PCBNEW (6.0.9)) date 2023-02-20 20:31:07*
%MOMM*%
%LPD*%
G01*
G04 APERTURE LIST*
%ADD10C,0.200000*%
%TA.AperFunction,Profile*%
%ADD11C,0.200000*%
%TD*%
%ADD12C,0.120000*%
%ADD13C,0.300000*%
%ADD14C,0.150000*%
%ADD15C,0.250000*%
%ADD16C,0.100000*%
G04 APERTURE END LIST*
D10*
X123390000Y-66625000D02*
X127250000Y-66625000D01*
X127250000Y-66625000D02*
X127250000Y-78955000D01*
X127250000Y-78955000D02*
X123390000Y-78955000D01*
X123390000Y-78955000D02*
X123390000Y-66625000D01*
X145100000Y-67500000D02*
X148090000Y-67500000D01*
X148090000Y-67500000D02*
X148090000Y-75980000D01*
X148090000Y-75980000D02*
X145100000Y-75980000D01*
X145100000Y-75980000D02*
X145100000Y-67500000D01*
D11*
X120000000Y-125000000D02*
X120000000Y-55000000D01*
X120000000Y-55000000D02*
X162000000Y-55000000D01*
X120000000Y-125000000D02*
X162000000Y-125000000D01*
X162052000Y-55000000D02*
X162000000Y-125000000D01*
D12*
X154026190Y-59762380D02*
X154026190Y-58762380D01*
X153645238Y-58762380D01*
X153550000Y-58810000D01*
X153502380Y-58857619D01*
X153454761Y-58952857D01*
X153454761Y-59095714D01*
X153502380Y-59190952D01*
X153550000Y-59238571D01*
X153645238Y-59286190D01*
X154026190Y-59286190D01*
X153026190Y-59762380D02*
X153026190Y-58762380D01*
X152645238Y-58762380D01*
X152550000Y-58810000D01*
X152502380Y-58857619D01*
X152454761Y-58952857D01*
X152454761Y-59095714D01*
X152502380Y-59190952D01*
X152550000Y-59238571D01*
X152645238Y-59286190D01*
X153026190Y-59286190D01*
X152073809Y-59714761D02*
X151930952Y-59762380D01*
X151692857Y-59762380D01*
X151597619Y-59714761D01*
X151550000Y-59667142D01*
X151502380Y-59571904D01*
X151502380Y-59476666D01*
X151550000Y-59381428D01*
X151597619Y-59333809D01*
X151692857Y-59286190D01*
X151883333Y-59238571D01*
X151978571Y-59190952D01*
X152026190Y-59143333D01*
X152073809Y-59048095D01*
X152073809Y-58952857D01*
X152026190Y-58857619D01*
X151978571Y-58810000D01*
X151883333Y-58762380D01*
X151645238Y-58762380D01*
X151502380Y-58810000D01*
X151026190Y-59714761D02*
X151026190Y-59762380D01*
X151073809Y-59857619D01*
X151121428Y-59905238D01*
X150740476Y-58762380D02*
X150169047Y-58762380D01*
X150454761Y-59762380D02*
X150454761Y-58762380D01*
X149930952Y-58762380D02*
X149264285Y-59762380D01*
X149264285Y-58762380D02*
X149930952Y-59762380D01*
X148835714Y-59714761D02*
X148835714Y-59762380D01*
X148883333Y-59857619D01*
X148930952Y-59905238D01*
X147835714Y-59762380D02*
X148169047Y-59286190D01*
X148407142Y-59762380D02*
X148407142Y-58762380D01*
X148026190Y-58762380D01*
X147930952Y-58810000D01*
X147883333Y-58857619D01*
X147835714Y-58952857D01*
X147835714Y-59095714D01*
X147883333Y-59190952D01*
X147930952Y-59238571D01*
X148026190Y-59286190D01*
X148407142Y-59286190D01*
X147502380Y-58762380D02*
X146835714Y-59762380D01*
X146835714Y-58762380D02*
X147502380Y-59762380D01*
X146407142Y-59714761D02*
X146407142Y-59762380D01*
X146454761Y-59857619D01*
X146502380Y-59905238D01*
X145454761Y-58810000D02*
X145550000Y-58762380D01*
X145692857Y-58762380D01*
X145835714Y-58810000D01*
X145930952Y-58905238D01*
X145978571Y-59000476D01*
X146026190Y-59190952D01*
X146026190Y-59333809D01*
X145978571Y-59524285D01*
X145930952Y-59619523D01*
X145835714Y-59714761D01*
X145692857Y-59762380D01*
X145597619Y-59762380D01*
X145454761Y-59714761D01*
X145407142Y-59667142D01*
X145407142Y-59333809D01*
X145597619Y-59333809D01*
X144978571Y-59762380D02*
X144978571Y-58762380D01*
X144407142Y-59762380D01*
X144407142Y-58762380D01*
X143930952Y-59762380D02*
X143930952Y-58762380D01*
X143692857Y-58762380D01*
X143550000Y-58810000D01*
X143454761Y-58905238D01*
X143407142Y-59000476D01*
X143359523Y-59190952D01*
X143359523Y-59333809D01*
X143407142Y-59524285D01*
X143454761Y-59619523D01*
X143550000Y-59714761D01*
X143692857Y-59762380D01*
X143930952Y-59762380D01*
X142883333Y-59714761D02*
X142883333Y-59762380D01*
X142930952Y-59857619D01*
X142978571Y-59905238D01*
X142597619Y-58762380D02*
X142264285Y-59762380D01*
X141930952Y-58762380D01*
X141026190Y-59667142D02*
X141073809Y-59714761D01*
X141216666Y-59762380D01*
X141311904Y-59762380D01*
X141454761Y-59714761D01*
X141550000Y-59619523D01*
X141597619Y-59524285D01*
X141645238Y-59333809D01*
X141645238Y-59190952D01*
X141597619Y-59000476D01*
X141550000Y-58905238D01*
X141454761Y-58810000D01*
X141311904Y-58762380D01*
X141216666Y-58762380D01*
X141073809Y-58810000D01*
X141026190Y-58857619D01*
X140026190Y-59667142D02*
X140073809Y-59714761D01*
X140216666Y-59762380D01*
X140311904Y-59762380D01*
X140454761Y-59714761D01*
X140550000Y-59619523D01*
X140597619Y-59524285D01*
X140645238Y-59333809D01*
X140645238Y-59190952D01*
X140597619Y-59000476D01*
X140550000Y-58905238D01*
X140454761Y-58810000D01*
X140311904Y-58762380D01*
X140216666Y-58762380D01*
X140073809Y-58810000D01*
X140026190Y-58857619D01*
D13*
X147148571Y-101527142D02*
X148291428Y-101527142D01*
D14*
X125806666Y-67581904D02*
X125806666Y-68058095D01*
X126092380Y-67486666D02*
X125092380Y-67820000D01*
X126092380Y-68153333D01*
X126092380Y-68486666D02*
X125092380Y-68486666D01*
X125092380Y-68867619D01*
X125140000Y-68962857D01*
X125187619Y-69010476D01*
X125282857Y-69058095D01*
X125425714Y-69058095D01*
X125520952Y-69010476D01*
X125568571Y-68962857D01*
X125616190Y-68867619D01*
X125616190Y-68486666D01*
X126092380Y-70058095D02*
X125616190Y-69724761D01*
X126092380Y-69486666D02*
X125092380Y-69486666D01*
X125092380Y-69867619D01*
X125140000Y-69962857D01*
X125187619Y-70010476D01*
X125282857Y-70058095D01*
X125425714Y-70058095D01*
X125520952Y-70010476D01*
X125568571Y-69962857D01*
X125616190Y-69867619D01*
X125616190Y-69486666D01*
X126044761Y-70439047D02*
X126092380Y-70581904D01*
X126092380Y-70820000D01*
X126044761Y-70915238D01*
X125997142Y-70962857D01*
X125901904Y-71010476D01*
X125806666Y-71010476D01*
X125711428Y-70962857D01*
X125663809Y-70915238D01*
X125616190Y-70820000D01*
X125568571Y-70629523D01*
X125520952Y-70534285D01*
X125473333Y-70486666D01*
X125378095Y-70439047D01*
X125282857Y-70439047D01*
X125187619Y-70486666D01*
X125140000Y-70534285D01*
X125092380Y-70629523D01*
X125092380Y-70867619D01*
X125140000Y-71010476D01*
X125806666Y-72153333D02*
X125806666Y-72629523D01*
X126092380Y-72058095D02*
X125092380Y-72391428D01*
X126092380Y-72724761D01*
X126092380Y-73058095D02*
X125092380Y-73058095D01*
X125092380Y-73724761D02*
X125092380Y-73915238D01*
X125140000Y-74010476D01*
X125235238Y-74105714D01*
X125425714Y-74153333D01*
X125759047Y-74153333D01*
X125949523Y-74105714D01*
X126044761Y-74010476D01*
X126092380Y-73915238D01*
X126092380Y-73724761D01*
X126044761Y-73629523D01*
X125949523Y-73534285D01*
X125759047Y-73486666D01*
X125425714Y-73486666D01*
X125235238Y-73534285D01*
X125140000Y-73629523D01*
X125092380Y-73724761D01*
X125425714Y-75248571D02*
X126092380Y-75486666D01*
X125425714Y-75724761D01*
X126092380Y-76629523D02*
X126092380Y-76058095D01*
X126092380Y-76343809D02*
X125092380Y-76343809D01*
X125235238Y-76248571D01*
X125330476Y-76153333D01*
X125378095Y-76058095D01*
X125997142Y-77058095D02*
X126044761Y-77105714D01*
X126092380Y-77058095D01*
X126044761Y-77010476D01*
X125997142Y-77058095D01*
X126092380Y-77058095D01*
X125092380Y-77724761D02*
X125092380Y-77820000D01*
X125140000Y-77915238D01*
X125187619Y-77962857D01*
X125282857Y-78010476D01*
X125473333Y-78058095D01*
X125711428Y-78058095D01*
X125901904Y-78010476D01*
X125997142Y-77962857D01*
X126044761Y-77915238D01*
X126092380Y-77820000D01*
X126092380Y-77724761D01*
X126044761Y-77629523D01*
X125997142Y-77581904D01*
X125901904Y-77534285D01*
X125711428Y-77486666D01*
X125473333Y-77486666D01*
X125282857Y-77534285D01*
X125187619Y-77581904D01*
X125140000Y-77629523D01*
X125092380Y-77724761D01*
D13*
X136411428Y-58637142D02*
X135268571Y-58637142D01*
X135840000Y-59208571D02*
X135840000Y-58065714D01*
X133625714Y-57708571D02*
X133125714Y-59208571D01*
X132625714Y-57708571D01*
X132125714Y-59208571D02*
X132125714Y-58208571D01*
X132125714Y-58494285D02*
X132054285Y-58351428D01*
X131982857Y-58280000D01*
X131840000Y-58208571D01*
X131697142Y-58208571D01*
X130625714Y-59137142D02*
X130768571Y-59208571D01*
X131054285Y-59208571D01*
X131197142Y-59137142D01*
X131268571Y-58994285D01*
X131268571Y-58422857D01*
X131197142Y-58280000D01*
X131054285Y-58208571D01*
X130768571Y-58208571D01*
X130625714Y-58280000D01*
X130554285Y-58422857D01*
X130554285Y-58565714D01*
X131268571Y-58708571D01*
X130125714Y-58208571D02*
X129554285Y-58208571D01*
X129911428Y-59208571D02*
X129911428Y-57922857D01*
X129840000Y-57780000D01*
X129697142Y-57708571D01*
X129554285Y-57708571D01*
X127911428Y-58637142D02*
X126768571Y-58637142D01*
X150968571Y-101047142D02*
X152111428Y-101047142D01*
X151540000Y-101618571D02*
X151540000Y-100475714D01*
D15*
X133291904Y-57232380D02*
X133863333Y-57232380D01*
X133577619Y-57232380D02*
X133577619Y-56232380D01*
X133672857Y-56375238D01*
X133768095Y-56470476D01*
X133863333Y-56518095D01*
X132863333Y-57137142D02*
X132815714Y-57184761D01*
X132863333Y-57232380D01*
X132910952Y-57184761D01*
X132863333Y-57137142D01*
X132863333Y-57232380D01*
X132434761Y-56327619D02*
X132387142Y-56280000D01*
X132291904Y-56232380D01*
X132053809Y-56232380D01*
X131958571Y-56280000D01*
X131910952Y-56327619D01*
X131863333Y-56422857D01*
X131863333Y-56518095D01*
X131910952Y-56660952D01*
X132482380Y-57232380D01*
X131863333Y-57232380D01*
X131006190Y-56565714D02*
X131006190Y-57232380D01*
X131244285Y-56184761D02*
X131482380Y-56899047D01*
X130863333Y-56899047D01*
X130006190Y-56232380D02*
X130482380Y-56232380D01*
X130530000Y-56708571D01*
X130482380Y-56660952D01*
X130387142Y-56613333D01*
X130149047Y-56613333D01*
X130053809Y-56660952D01*
X130006190Y-56708571D01*
X129958571Y-56803809D01*
X129958571Y-57041904D01*
X130006190Y-57137142D01*
X130053809Y-57184761D01*
X130149047Y-57232380D01*
X130387142Y-57232380D01*
X130482380Y-57184761D01*
X130530000Y-57137142D01*
X129625238Y-56565714D02*
X129387142Y-57232380D01*
X129149047Y-56565714D01*
D13*
X144378571Y-101077142D02*
X145521428Y-101077142D01*
X144950000Y-101648571D02*
X144950000Y-100505714D01*
D12*
X138852380Y-62272380D02*
X138661904Y-62272380D01*
X138566666Y-62320000D01*
X138471428Y-62415238D01*
X138423809Y-62605714D01*
X138423809Y-62939047D01*
X138471428Y-63129523D01*
X138566666Y-63224761D01*
X138661904Y-63272380D01*
X138852380Y-63272380D01*
X138947619Y-63224761D01*
X139042857Y-63129523D01*
X139090476Y-62939047D01*
X139090476Y-62605714D01*
X139042857Y-62415238D01*
X138947619Y-62320000D01*
X138852380Y-62272380D01*
X137519047Y-63272380D02*
X137995238Y-63272380D01*
X137995238Y-62272380D01*
X137185714Y-62748571D02*
X136852380Y-62748571D01*
X136709523Y-63272380D02*
X137185714Y-63272380D01*
X137185714Y-62272380D01*
X136709523Y-62272380D01*
X136280952Y-63272380D02*
X136280952Y-62272380D01*
X136042857Y-62272380D01*
X135900000Y-62320000D01*
X135804761Y-62415238D01*
X135757142Y-62510476D01*
X135709523Y-62700952D01*
X135709523Y-62843809D01*
X135757142Y-63034285D01*
X135804761Y-63129523D01*
X135900000Y-63224761D01*
X136042857Y-63272380D01*
X136280952Y-63272380D01*
X156134285Y-57080000D02*
X156229523Y-57032380D01*
X156372380Y-57032380D01*
X156515238Y-57080000D01*
X156610476Y-57175238D01*
X156658095Y-57270476D01*
X156705714Y-57460952D01*
X156705714Y-57603809D01*
X156658095Y-57794285D01*
X156610476Y-57889523D01*
X156515238Y-57984761D01*
X156372380Y-58032380D01*
X156277142Y-58032380D01*
X156134285Y-57984761D01*
X156086666Y-57937142D01*
X156086666Y-57603809D01*
X156277142Y-57603809D01*
X155658095Y-58032380D02*
X155658095Y-57032380D01*
X155277142Y-57032380D01*
X155181904Y-57080000D01*
X155134285Y-57127619D01*
X155086666Y-57222857D01*
X155086666Y-57365714D01*
X155134285Y-57460952D01*
X155181904Y-57508571D01*
X155277142Y-57556190D01*
X155658095Y-57556190D01*
X154705714Y-57984761D02*
X154562857Y-58032380D01*
X154324761Y-58032380D01*
X154229523Y-57984761D01*
X154181904Y-57937142D01*
X154134285Y-57841904D01*
X154134285Y-57746666D01*
X154181904Y-57651428D01*
X154229523Y-57603809D01*
X154324761Y-57556190D01*
X154515238Y-57508571D01*
X154610476Y-57460952D01*
X154658095Y-57413333D01*
X154705714Y-57318095D01*
X154705714Y-57222857D01*
X154658095Y-57127619D01*
X154610476Y-57080000D01*
X154515238Y-57032380D01*
X154277142Y-57032380D01*
X154134285Y-57080000D01*
D14*
X152393333Y-121810000D02*
X152488571Y-121762380D01*
X152631428Y-121762380D01*
X152774285Y-121810000D01*
X152869523Y-121905238D01*
X152917142Y-122000476D01*
X152964761Y-122190952D01*
X152964761Y-122333809D01*
X152917142Y-122524285D01*
X152869523Y-122619523D01*
X152774285Y-122714761D01*
X152631428Y-122762380D01*
X152536190Y-122762380D01*
X152393333Y-122714761D01*
X152345714Y-122667142D01*
X152345714Y-122333809D01*
X152536190Y-122333809D01*
X151917142Y-122762380D02*
X151917142Y-121762380D01*
X151345714Y-122762380D01*
X151345714Y-121762380D01*
X150869523Y-122762380D02*
X150869523Y-121762380D01*
X150631428Y-121762380D01*
X150488571Y-121810000D01*
X150393333Y-121905238D01*
X150345714Y-122000476D01*
X150298095Y-122190952D01*
X150298095Y-122333809D01*
X150345714Y-122524285D01*
X150393333Y-122619523D01*
X150488571Y-122714761D01*
X150631428Y-122762380D01*
X150869523Y-122762380D01*
X149821904Y-122714761D02*
X149821904Y-122762380D01*
X149869523Y-122857619D01*
X149917142Y-122905238D01*
X149536190Y-121762380D02*
X149202857Y-122762380D01*
X148869523Y-121762380D01*
X147964761Y-122667142D02*
X148012380Y-122714761D01*
X148155238Y-122762380D01*
X148250476Y-122762380D01*
X148393333Y-122714761D01*
X148488571Y-122619523D01*
X148536190Y-122524285D01*
X148583809Y-122333809D01*
X148583809Y-122190952D01*
X148536190Y-122000476D01*
X148488571Y-121905238D01*
X148393333Y-121810000D01*
X148250476Y-121762380D01*
X148155238Y-121762380D01*
X148012380Y-121810000D01*
X147964761Y-121857619D01*
X146964761Y-122667142D02*
X147012380Y-122714761D01*
X147155238Y-122762380D01*
X147250476Y-122762380D01*
X147393333Y-122714761D01*
X147488571Y-122619523D01*
X147536190Y-122524285D01*
X147583809Y-122333809D01*
X147583809Y-122190952D01*
X147536190Y-122000476D01*
X147488571Y-121905238D01*
X147393333Y-121810000D01*
X147250476Y-121762380D01*
X147155238Y-121762380D01*
X147012380Y-121810000D01*
X146964761Y-121857619D01*
X146488571Y-122714761D02*
X146488571Y-122762380D01*
X146536190Y-122857619D01*
X146583809Y-122905238D01*
X146060000Y-122762380D02*
X146060000Y-121762380D01*
X145679047Y-121762380D01*
X145583809Y-121810000D01*
X145536190Y-121857619D01*
X145488571Y-121952857D01*
X145488571Y-122095714D01*
X145536190Y-122190952D01*
X145583809Y-122238571D01*
X145679047Y-122286190D01*
X146060000Y-122286190D01*
X145202857Y-121762380D02*
X144631428Y-121762380D01*
X144917142Y-122762380D02*
X144917142Y-121762380D01*
X144440952Y-121762380D02*
X143869523Y-121762380D01*
X144155238Y-122762380D02*
X144155238Y-121762380D01*
X143488571Y-122714761D02*
X143488571Y-122762380D01*
X143536190Y-122857619D01*
X143583809Y-122905238D01*
X143107619Y-122714761D02*
X142964761Y-122762380D01*
X142726666Y-122762380D01*
X142631428Y-122714761D01*
X142583809Y-122667142D01*
X142536190Y-122571904D01*
X142536190Y-122476666D01*
X142583809Y-122381428D01*
X142631428Y-122333809D01*
X142726666Y-122286190D01*
X142917142Y-122238571D01*
X143012380Y-122190952D01*
X143060000Y-122143333D01*
X143107619Y-122048095D01*
X143107619Y-121952857D01*
X143060000Y-121857619D01*
X143012380Y-121810000D01*
X142917142Y-121762380D01*
X142679047Y-121762380D01*
X142536190Y-121810000D01*
X142107619Y-122762380D02*
X142107619Y-121762380D01*
X141726666Y-121762380D01*
X141631428Y-121810000D01*
X141583809Y-121857619D01*
X141536190Y-121952857D01*
X141536190Y-122095714D01*
X141583809Y-122190952D01*
X141631428Y-122238571D01*
X141726666Y-122286190D01*
X142107619Y-122286190D01*
X141107619Y-122762380D02*
X141107619Y-121762380D01*
X140536190Y-122762380D02*
X140964761Y-122190952D01*
X140536190Y-121762380D02*
X141107619Y-122333809D01*
X140060000Y-122714761D02*
X140060000Y-122762380D01*
X140107619Y-122857619D01*
X140155238Y-122905238D01*
X139631428Y-122762380D02*
X139631428Y-121762380D01*
X139298095Y-122476666D01*
X138964761Y-121762380D01*
X138964761Y-122762380D01*
X138488571Y-122762380D02*
X138488571Y-121762380D01*
X137440952Y-122667142D02*
X137488571Y-122714761D01*
X137631428Y-122762380D01*
X137726666Y-122762380D01*
X137869523Y-122714761D01*
X137964761Y-122619523D01*
X138012380Y-122524285D01*
X138060000Y-122333809D01*
X138060000Y-122190952D01*
X138012380Y-122000476D01*
X137964761Y-121905238D01*
X137869523Y-121810000D01*
X137726666Y-121762380D01*
X137631428Y-121762380D01*
X137488571Y-121810000D01*
X137440952Y-121857619D01*
X136964761Y-122714761D02*
X136964761Y-122762380D01*
X137012380Y-122857619D01*
X137060000Y-122905238D01*
X136583809Y-122714761D02*
X136440952Y-122762380D01*
X136202857Y-122762380D01*
X136107619Y-122714761D01*
X136060000Y-122667142D01*
X136012380Y-122571904D01*
X136012380Y-122476666D01*
X136060000Y-122381428D01*
X136107619Y-122333809D01*
X136202857Y-122286190D01*
X136393333Y-122238571D01*
X136488571Y-122190952D01*
X136536190Y-122143333D01*
X136583809Y-122048095D01*
X136583809Y-121952857D01*
X136536190Y-121857619D01*
X136488571Y-121810000D01*
X136393333Y-121762380D01*
X136155238Y-121762380D01*
X136012380Y-121810000D01*
X134917142Y-122857619D02*
X135012380Y-122810000D01*
X135107619Y-122714761D01*
X135250476Y-122571904D01*
X135345714Y-122524285D01*
X135440952Y-122524285D01*
X135393333Y-122762380D02*
X135488571Y-122714761D01*
X135583809Y-122619523D01*
X135631428Y-122429047D01*
X135631428Y-122095714D01*
X135583809Y-121905238D01*
X135488571Y-121810000D01*
X135393333Y-121762380D01*
X135202857Y-121762380D01*
X135107619Y-121810000D01*
X135012380Y-121905238D01*
X134964761Y-122095714D01*
X134964761Y-122429047D01*
X135012380Y-122619523D01*
X135107619Y-122714761D01*
X135202857Y-122762380D01*
X135393333Y-122762380D01*
X134060000Y-122762380D02*
X134536190Y-122762380D01*
X134536190Y-121762380D01*
D15*
X132894761Y-60597142D02*
X132942380Y-60644761D01*
X133085238Y-60692380D01*
X133180476Y-60692380D01*
X133323333Y-60644761D01*
X133418571Y-60549523D01*
X133466190Y-60454285D01*
X133513809Y-60263809D01*
X133513809Y-60120952D01*
X133466190Y-59930476D01*
X133418571Y-59835238D01*
X133323333Y-59740000D01*
X133180476Y-59692380D01*
X133085238Y-59692380D01*
X132942380Y-59740000D01*
X132894761Y-59787619D01*
X132466190Y-60692380D02*
X132466190Y-59692380D01*
X132037619Y-60692380D02*
X132037619Y-60168571D01*
X132085238Y-60073333D01*
X132180476Y-60025714D01*
X132323333Y-60025714D01*
X132418571Y-60073333D01*
X132466190Y-60120952D01*
X131180476Y-60644761D02*
X131275714Y-60692380D01*
X131466190Y-60692380D01*
X131561428Y-60644761D01*
X131609047Y-60549523D01*
X131609047Y-60168571D01*
X131561428Y-60073333D01*
X131466190Y-60025714D01*
X131275714Y-60025714D01*
X131180476Y-60073333D01*
X131132857Y-60168571D01*
X131132857Y-60263809D01*
X131609047Y-60359047D01*
X130275714Y-60644761D02*
X130370952Y-60692380D01*
X130561428Y-60692380D01*
X130656666Y-60644761D01*
X130704285Y-60597142D01*
X130751904Y-60501904D01*
X130751904Y-60216190D01*
X130704285Y-60120952D01*
X130656666Y-60073333D01*
X130561428Y-60025714D01*
X130370952Y-60025714D01*
X130275714Y-60073333D01*
X129847142Y-60692380D02*
X129847142Y-59692380D01*
X129751904Y-60311428D02*
X129466190Y-60692380D01*
X129466190Y-60025714D02*
X129847142Y-60406666D01*
D13*
X140498571Y-101577142D02*
X141641428Y-101577142D01*
D14*
%TO.C,RV2*%
X154389047Y-112442380D02*
X154960476Y-112442380D01*
X154674761Y-112442380D02*
X154674761Y-111442380D01*
X154770000Y-111585238D01*
X154865238Y-111680476D01*
X154960476Y-111728095D01*
X153960476Y-112442380D02*
X153960476Y-111442380D01*
X153865238Y-112061428D02*
X153579523Y-112442380D01*
X153579523Y-111775714D02*
X153960476Y-112156666D01*
X150400476Y-111552380D02*
X149781428Y-111552380D01*
X150114761Y-111933333D01*
X149971904Y-111933333D01*
X149876666Y-111980952D01*
X149829047Y-112028571D01*
X149781428Y-112123809D01*
X149781428Y-112361904D01*
X149829047Y-112457142D01*
X149876666Y-112504761D01*
X149971904Y-112552380D01*
X150257619Y-112552380D01*
X150352857Y-112504761D01*
X150400476Y-112457142D01*
X149448095Y-111552380D02*
X148829047Y-111552380D01*
X149162380Y-111933333D01*
X149019523Y-111933333D01*
X148924285Y-111980952D01*
X148876666Y-112028571D01*
X148829047Y-112123809D01*
X148829047Y-112361904D01*
X148876666Y-112457142D01*
X148924285Y-112504761D01*
X149019523Y-112552380D01*
X149305238Y-112552380D01*
X149400476Y-112504761D01*
X149448095Y-112457142D01*
X148257619Y-111980952D02*
X148352857Y-111933333D01*
X148400476Y-111885714D01*
X148448095Y-111790476D01*
X148448095Y-111742857D01*
X148400476Y-111647619D01*
X148352857Y-111600000D01*
X148257619Y-111552380D01*
X148067142Y-111552380D01*
X147971904Y-111600000D01*
X147924285Y-111647619D01*
X147876666Y-111742857D01*
X147876666Y-111790476D01*
X147924285Y-111885714D01*
X147971904Y-111933333D01*
X148067142Y-111980952D01*
X148257619Y-111980952D01*
X148352857Y-112028571D01*
X148400476Y-112076190D01*
X148448095Y-112171428D01*
X148448095Y-112361904D01*
X148400476Y-112457142D01*
X148352857Y-112504761D01*
X148257619Y-112552380D01*
X148067142Y-112552380D01*
X147971904Y-112504761D01*
X147924285Y-112457142D01*
X147876666Y-112361904D01*
X147876666Y-112171428D01*
X147924285Y-112076190D01*
X147971904Y-112028571D01*
X148067142Y-111980952D01*
X147019523Y-111552380D02*
X147210000Y-111552380D01*
X147305238Y-111600000D01*
X147352857Y-111647619D01*
X147448095Y-111790476D01*
X147495714Y-111980952D01*
X147495714Y-112361904D01*
X147448095Y-112457142D01*
X147400476Y-112504761D01*
X147305238Y-112552380D01*
X147114761Y-112552380D01*
X147019523Y-112504761D01*
X146971904Y-112457142D01*
X146924285Y-112361904D01*
X146924285Y-112123809D01*
X146971904Y-112028571D01*
X147019523Y-111980952D01*
X147114761Y-111933333D01*
X147305238Y-111933333D01*
X147400476Y-111980952D01*
X147448095Y-112028571D01*
X147495714Y-112123809D01*
X146162380Y-112028571D02*
X146495714Y-112028571D01*
X146495714Y-112552380D02*
X146495714Y-111552380D01*
X146019523Y-111552380D01*
X157267619Y-110780476D02*
X157267619Y-110590000D01*
X157220000Y-110494761D01*
X157124761Y-110399523D01*
X156934285Y-110351904D01*
X156600952Y-110351904D01*
X156410476Y-110399523D01*
X156315238Y-110494761D01*
X156267619Y-110590000D01*
X156267619Y-110780476D01*
X156315238Y-110875714D01*
X156410476Y-110970952D01*
X156600952Y-111018571D01*
X156934285Y-111018571D01*
X157124761Y-110970952D01*
X157220000Y-110875714D01*
X157267619Y-110780476D01*
X157267619Y-109923333D02*
X156458095Y-109923333D01*
X156362857Y-109875714D01*
X156315238Y-109828095D01*
X156267619Y-109732857D01*
X156267619Y-109542380D01*
X156315238Y-109447142D01*
X156362857Y-109399523D01*
X156458095Y-109351904D01*
X157267619Y-109351904D01*
X157267619Y-109018571D02*
X157267619Y-108447142D01*
X156267619Y-108732857D02*
X157267619Y-108732857D01*
X156553333Y-107399523D02*
X156553333Y-106923333D01*
X156267619Y-107494761D02*
X157267619Y-107161428D01*
X156267619Y-106828095D01*
X156267619Y-106494761D02*
X157267619Y-106494761D01*
X157267619Y-106256666D01*
X157220000Y-106113809D01*
X157124761Y-106018571D01*
X157029523Y-105970952D01*
X156839047Y-105923333D01*
X156696190Y-105923333D01*
X156505714Y-105970952D01*
X156410476Y-106018571D01*
X156315238Y-106113809D01*
X156267619Y-106256666D01*
X156267619Y-106494761D01*
X157267619Y-105209047D02*
X156553333Y-105209047D01*
X156410476Y-105256666D01*
X156315238Y-105351904D01*
X156267619Y-105494761D01*
X156267619Y-105590000D01*
%TO.C,TX1*%
X144458095Y-94772380D02*
X143886666Y-94772380D01*
X144172380Y-95772380D02*
X144172380Y-94772380D01*
X143648571Y-94772380D02*
X142981904Y-95772380D01*
X142981904Y-94772380D02*
X143648571Y-95772380D01*
X142077142Y-95772380D02*
X142648571Y-95772380D01*
X142362857Y-95772380D02*
X142362857Y-94772380D01*
X142458095Y-94915238D01*
X142553333Y-95010476D01*
X142648571Y-95058095D01*
X143712857Y-97082380D02*
X144189047Y-97082380D01*
X144189047Y-96082380D01*
X143379523Y-96558571D02*
X143046190Y-96558571D01*
X142903333Y-97082380D02*
X143379523Y-97082380D01*
X143379523Y-96082380D01*
X142903333Y-96082380D01*
X142474761Y-97082380D02*
X142474761Y-96082380D01*
X142236666Y-96082380D01*
X142093809Y-96130000D01*
X141998571Y-96225238D01*
X141950952Y-96320476D01*
X141903333Y-96510952D01*
X141903333Y-96653809D01*
X141950952Y-96844285D01*
X141998571Y-96939523D01*
X142093809Y-97034761D01*
X142236666Y-97082380D01*
X142474761Y-97082380D01*
%TO.C,RV1*%
X141685238Y-104782380D02*
X142256666Y-104782380D01*
X141970952Y-104782380D02*
X141970952Y-103782380D01*
X142066190Y-103925238D01*
X142161428Y-104020476D01*
X142256666Y-104068095D01*
X141066190Y-103782380D02*
X140970952Y-103782380D01*
X140875714Y-103830000D01*
X140828095Y-103877619D01*
X140780476Y-103972857D01*
X140732857Y-104163333D01*
X140732857Y-104401428D01*
X140780476Y-104591904D01*
X140828095Y-104687142D01*
X140875714Y-104734761D01*
X140970952Y-104782380D01*
X141066190Y-104782380D01*
X141161428Y-104734761D01*
X141209047Y-104687142D01*
X141256666Y-104591904D01*
X141304285Y-104401428D01*
X141304285Y-104163333D01*
X141256666Y-103972857D01*
X141209047Y-103877619D01*
X141161428Y-103830000D01*
X141066190Y-103782380D01*
X140304285Y-104782380D02*
X140304285Y-103782380D01*
X140209047Y-104401428D02*
X139923333Y-104782380D01*
X139923333Y-104115714D02*
X140304285Y-104496666D01*
X138260476Y-103482380D02*
X137641428Y-103482380D01*
X137974761Y-103863333D01*
X137831904Y-103863333D01*
X137736666Y-103910952D01*
X137689047Y-103958571D01*
X137641428Y-104053809D01*
X137641428Y-104291904D01*
X137689047Y-104387142D01*
X137736666Y-104434761D01*
X137831904Y-104482380D01*
X138117619Y-104482380D01*
X138212857Y-104434761D01*
X138260476Y-104387142D01*
X137308095Y-103482380D02*
X136689047Y-103482380D01*
X137022380Y-103863333D01*
X136879523Y-103863333D01*
X136784285Y-103910952D01*
X136736666Y-103958571D01*
X136689047Y-104053809D01*
X136689047Y-104291904D01*
X136736666Y-104387142D01*
X136784285Y-104434761D01*
X136879523Y-104482380D01*
X137165238Y-104482380D01*
X137260476Y-104434761D01*
X137308095Y-104387142D01*
X136117619Y-103910952D02*
X136212857Y-103863333D01*
X136260476Y-103815714D01*
X136308095Y-103720476D01*
X136308095Y-103672857D01*
X136260476Y-103577619D01*
X136212857Y-103530000D01*
X136117619Y-103482380D01*
X135927142Y-103482380D01*
X135831904Y-103530000D01*
X135784285Y-103577619D01*
X135736666Y-103672857D01*
X135736666Y-103720476D01*
X135784285Y-103815714D01*
X135831904Y-103863333D01*
X135927142Y-103910952D01*
X136117619Y-103910952D01*
X136212857Y-103958571D01*
X136260476Y-104006190D01*
X136308095Y-104101428D01*
X136308095Y-104291904D01*
X136260476Y-104387142D01*
X136212857Y-104434761D01*
X136117619Y-104482380D01*
X135927142Y-104482380D01*
X135831904Y-104434761D01*
X135784285Y-104387142D01*
X135736666Y-104291904D01*
X135736666Y-104101428D01*
X135784285Y-104006190D01*
X135831904Y-103958571D01*
X135927142Y-103910952D01*
X134879523Y-103482380D02*
X135070000Y-103482380D01*
X135165238Y-103530000D01*
X135212857Y-103577619D01*
X135308095Y-103720476D01*
X135355714Y-103910952D01*
X135355714Y-104291904D01*
X135308095Y-104387142D01*
X135260476Y-104434761D01*
X135165238Y-104482380D01*
X134974761Y-104482380D01*
X134879523Y-104434761D01*
X134831904Y-104387142D01*
X134784285Y-104291904D01*
X134784285Y-104053809D01*
X134831904Y-103958571D01*
X134879523Y-103910952D01*
X134974761Y-103863333D01*
X135165238Y-103863333D01*
X135260476Y-103910952D01*
X135308095Y-103958571D01*
X135355714Y-104053809D01*
X134022380Y-103958571D02*
X134355714Y-103958571D01*
X134355714Y-104482380D02*
X134355714Y-103482380D01*
X133879523Y-103482380D01*
X143847619Y-111609047D02*
X144847619Y-111609047D01*
X143847619Y-111132857D02*
X144847619Y-111132857D01*
X143847619Y-110561428D01*
X144847619Y-110561428D01*
X143847619Y-110085238D02*
X144847619Y-110085238D01*
X144847619Y-109704285D01*
X144800000Y-109609047D01*
X144752380Y-109561428D01*
X144657142Y-109513809D01*
X144514285Y-109513809D01*
X144419047Y-109561428D01*
X144371428Y-109609047D01*
X144323809Y-109704285D01*
X144323809Y-110085238D01*
X144847619Y-109085238D02*
X144038095Y-109085238D01*
X143942857Y-109037619D01*
X143895238Y-108990000D01*
X143847619Y-108894761D01*
X143847619Y-108704285D01*
X143895238Y-108609047D01*
X143942857Y-108561428D01*
X144038095Y-108513809D01*
X144847619Y-108513809D01*
X144847619Y-108180476D02*
X144847619Y-107609047D01*
X143847619Y-107894761D02*
X144847619Y-107894761D01*
X144133333Y-106561428D02*
X144133333Y-106085238D01*
X143847619Y-106656666D02*
X144847619Y-106323333D01*
X143847619Y-105990000D01*
X143847619Y-105656666D02*
X144847619Y-105656666D01*
X144847619Y-105418571D01*
X144800000Y-105275714D01*
X144704761Y-105180476D01*
X144609523Y-105132857D01*
X144419047Y-105085238D01*
X144276190Y-105085238D01*
X144085714Y-105132857D01*
X143990476Y-105180476D01*
X143895238Y-105275714D01*
X143847619Y-105418571D01*
X143847619Y-105656666D01*
X144847619Y-104370952D02*
X144133333Y-104370952D01*
X143990476Y-104418571D01*
X143895238Y-104513809D01*
X143847619Y-104656666D01*
X143847619Y-104751904D01*
%TO.C,RV3*%
X153212857Y-67342380D02*
X153689047Y-67342380D01*
X153736666Y-67818571D01*
X153689047Y-67770952D01*
X153593809Y-67723333D01*
X153355714Y-67723333D01*
X153260476Y-67770952D01*
X153212857Y-67818571D01*
X153165238Y-67913809D01*
X153165238Y-68151904D01*
X153212857Y-68247142D01*
X153260476Y-68294761D01*
X153355714Y-68342380D01*
X153593809Y-68342380D01*
X153689047Y-68294761D01*
X153736666Y-68247142D01*
X152546190Y-67342380D02*
X152450952Y-67342380D01*
X152355714Y-67390000D01*
X152308095Y-67437619D01*
X152260476Y-67532857D01*
X152212857Y-67723333D01*
X152212857Y-67961428D01*
X152260476Y-68151904D01*
X152308095Y-68247142D01*
X152355714Y-68294761D01*
X152450952Y-68342380D01*
X152546190Y-68342380D01*
X152641428Y-68294761D01*
X152689047Y-68247142D01*
X152736666Y-68151904D01*
X152784285Y-67961428D01*
X152784285Y-67723333D01*
X152736666Y-67532857D01*
X152689047Y-67437619D01*
X152641428Y-67390000D01*
X152546190Y-67342380D01*
X151784285Y-68342380D02*
X151784285Y-67342380D01*
X151689047Y-67961428D02*
X151403333Y-68342380D01*
X151403333Y-67675714D02*
X151784285Y-68056666D01*
X144040619Y-74987619D02*
X143040619Y-74654285D01*
X144040619Y-74320952D01*
X143040619Y-73987619D02*
X143707285Y-73987619D01*
X143516809Y-73987619D02*
X143612047Y-73940000D01*
X143659666Y-73892380D01*
X143707285Y-73797142D01*
X143707285Y-73701904D01*
X143088238Y-72987619D02*
X143040619Y-73082857D01*
X143040619Y-73273333D01*
X143088238Y-73368571D01*
X143183476Y-73416190D01*
X143564428Y-73416190D01*
X143659666Y-73368571D01*
X143707285Y-73273333D01*
X143707285Y-73082857D01*
X143659666Y-72987619D01*
X143564428Y-72940000D01*
X143469190Y-72940000D01*
X143373952Y-73416190D01*
X143707285Y-72654285D02*
X143707285Y-72273333D01*
X143040619Y-72511428D02*
X143897761Y-72511428D01*
X143993000Y-72463809D01*
X144040619Y-72368571D01*
X144040619Y-72273333D01*
X143326333Y-71225714D02*
X143326333Y-70749523D01*
X143040619Y-71320952D02*
X144040619Y-70987619D01*
X143040619Y-70654285D01*
X143040619Y-70320952D02*
X144040619Y-70320952D01*
X144040619Y-70082857D01*
X143993000Y-69940000D01*
X143897761Y-69844761D01*
X143802523Y-69797142D01*
X143612047Y-69749523D01*
X143469190Y-69749523D01*
X143278714Y-69797142D01*
X143183476Y-69844761D01*
X143088238Y-69940000D01*
X143040619Y-70082857D01*
X143040619Y-70320952D01*
X144040619Y-69035238D02*
X143326333Y-69035238D01*
X143183476Y-69082857D01*
X143088238Y-69178095D01*
X143040619Y-69320952D01*
X143040619Y-69416190D01*
X153830476Y-75142380D02*
X153211428Y-75142380D01*
X153544761Y-75523333D01*
X153401904Y-75523333D01*
X153306666Y-75570952D01*
X153259047Y-75618571D01*
X153211428Y-75713809D01*
X153211428Y-75951904D01*
X153259047Y-76047142D01*
X153306666Y-76094761D01*
X153401904Y-76142380D01*
X153687619Y-76142380D01*
X153782857Y-76094761D01*
X153830476Y-76047142D01*
X152878095Y-75142380D02*
X152259047Y-75142380D01*
X152592380Y-75523333D01*
X152449523Y-75523333D01*
X152354285Y-75570952D01*
X152306666Y-75618571D01*
X152259047Y-75713809D01*
X152259047Y-75951904D01*
X152306666Y-76047142D01*
X152354285Y-76094761D01*
X152449523Y-76142380D01*
X152735238Y-76142380D01*
X152830476Y-76094761D01*
X152878095Y-76047142D01*
X151687619Y-75570952D02*
X151782857Y-75523333D01*
X151830476Y-75475714D01*
X151878095Y-75380476D01*
X151878095Y-75332857D01*
X151830476Y-75237619D01*
X151782857Y-75190000D01*
X151687619Y-75142380D01*
X151497142Y-75142380D01*
X151401904Y-75190000D01*
X151354285Y-75237619D01*
X151306666Y-75332857D01*
X151306666Y-75380476D01*
X151354285Y-75475714D01*
X151401904Y-75523333D01*
X151497142Y-75570952D01*
X151687619Y-75570952D01*
X151782857Y-75618571D01*
X151830476Y-75666190D01*
X151878095Y-75761428D01*
X151878095Y-75951904D01*
X151830476Y-76047142D01*
X151782857Y-76094761D01*
X151687619Y-76142380D01*
X151497142Y-76142380D01*
X151401904Y-76094761D01*
X151354285Y-76047142D01*
X151306666Y-75951904D01*
X151306666Y-75761428D01*
X151354285Y-75666190D01*
X151401904Y-75618571D01*
X151497142Y-75570952D01*
X150449523Y-75142380D02*
X150640000Y-75142380D01*
X150735238Y-75190000D01*
X150782857Y-75237619D01*
X150878095Y-75380476D01*
X150925714Y-75570952D01*
X150925714Y-75951904D01*
X150878095Y-76047142D01*
X150830476Y-76094761D01*
X150735238Y-76142380D01*
X150544761Y-76142380D01*
X150449523Y-76094761D01*
X150401904Y-76047142D01*
X150354285Y-75951904D01*
X150354285Y-75713809D01*
X150401904Y-75618571D01*
X150449523Y-75570952D01*
X150544761Y-75523333D01*
X150735238Y-75523333D01*
X150830476Y-75570952D01*
X150878095Y-75618571D01*
X150925714Y-75713809D01*
X149592380Y-75618571D02*
X149925714Y-75618571D01*
X149925714Y-76142380D02*
X149925714Y-75142380D01*
X149449523Y-75142380D01*
%TO.C,Brd2*%
X158297619Y-63033809D02*
X158183333Y-63071904D01*
X157992857Y-63071904D01*
X157916666Y-63033809D01*
X157878571Y-62995714D01*
X157840476Y-62919523D01*
X157840476Y-62843333D01*
X157878571Y-62767142D01*
X157916666Y-62729047D01*
X157992857Y-62690952D01*
X158145238Y-62652857D01*
X158221428Y-62614761D01*
X158259523Y-62576666D01*
X158297619Y-62500476D01*
X158297619Y-62424285D01*
X158259523Y-62348095D01*
X158221428Y-62310000D01*
X158145238Y-62271904D01*
X157954761Y-62271904D01*
X157840476Y-62310000D01*
X157535714Y-63033809D02*
X157421428Y-63071904D01*
X157230952Y-63071904D01*
X157154761Y-63033809D01*
X157116666Y-62995714D01*
X157078571Y-62919523D01*
X157078571Y-62843333D01*
X157116666Y-62767142D01*
X157154761Y-62729047D01*
X157230952Y-62690952D01*
X157383333Y-62652857D01*
X157459523Y-62614761D01*
X157497619Y-62576666D01*
X157535714Y-62500476D01*
X157535714Y-62424285D01*
X157497619Y-62348095D01*
X157459523Y-62310000D01*
X157383333Y-62271904D01*
X157192857Y-62271904D01*
X157078571Y-62310000D01*
X156735714Y-63071904D02*
X156735714Y-62271904D01*
X156545238Y-62271904D01*
X156430952Y-62310000D01*
X156354761Y-62386190D01*
X156316666Y-62462380D01*
X156278571Y-62614761D01*
X156278571Y-62729047D01*
X156316666Y-62881428D01*
X156354761Y-62957619D01*
X156430952Y-63033809D01*
X156545238Y-63071904D01*
X156735714Y-63071904D01*
X155516666Y-63071904D02*
X155973809Y-63071904D01*
X155745238Y-63071904D02*
X155745238Y-62271904D01*
X155821428Y-62386190D01*
X155897619Y-62462380D01*
X155973809Y-62500476D01*
X155250000Y-62271904D02*
X154754761Y-62271904D01*
X155021428Y-62576666D01*
X154907142Y-62576666D01*
X154830952Y-62614761D01*
X154792857Y-62652857D01*
X154754761Y-62729047D01*
X154754761Y-62919523D01*
X154792857Y-62995714D01*
X154830952Y-63033809D01*
X154907142Y-63071904D01*
X155135714Y-63071904D01*
X155211904Y-63033809D01*
X155250000Y-62995714D01*
X154259523Y-62271904D02*
X154183333Y-62271904D01*
X154107142Y-62310000D01*
X154069047Y-62348095D01*
X154030952Y-62424285D01*
X153992857Y-62576666D01*
X153992857Y-62767142D01*
X154030952Y-62919523D01*
X154069047Y-62995714D01*
X154107142Y-63033809D01*
X154183333Y-63071904D01*
X154259523Y-63071904D01*
X154335714Y-63033809D01*
X154373809Y-62995714D01*
X154411904Y-62919523D01*
X154450000Y-62767142D01*
X154450000Y-62576666D01*
X154411904Y-62424285D01*
X154373809Y-62348095D01*
X154335714Y-62310000D01*
X154259523Y-62271904D01*
X153307142Y-62271904D02*
X153459523Y-62271904D01*
X153535714Y-62310000D01*
X153573809Y-62348095D01*
X153650000Y-62462380D01*
X153688095Y-62614761D01*
X153688095Y-62919523D01*
X153650000Y-62995714D01*
X153611904Y-63033809D01*
X153535714Y-63071904D01*
X153383333Y-63071904D01*
X153307142Y-63033809D01*
X153269047Y-62995714D01*
X153230952Y-62919523D01*
X153230952Y-62729047D01*
X153269047Y-62652857D01*
X153307142Y-62614761D01*
X153383333Y-62576666D01*
X153535714Y-62576666D01*
X153611904Y-62614761D01*
X153650000Y-62652857D01*
X153688095Y-62729047D01*
X153078571Y-63148095D02*
X152469047Y-63148095D01*
X151859523Y-63071904D02*
X152316666Y-63071904D01*
X152088095Y-63071904D02*
X152088095Y-62271904D01*
X152164285Y-62386190D01*
X152240476Y-62462380D01*
X152316666Y-62500476D01*
X151516666Y-62995714D02*
X151478571Y-63033809D01*
X151516666Y-63071904D01*
X151554761Y-63033809D01*
X151516666Y-62995714D01*
X151516666Y-63071904D01*
X151211904Y-62271904D02*
X150716666Y-62271904D01*
X150983333Y-62576666D01*
X150869047Y-62576666D01*
X150792857Y-62614761D01*
X150754761Y-62652857D01*
X150716666Y-62729047D01*
X150716666Y-62919523D01*
X150754761Y-62995714D01*
X150792857Y-63033809D01*
X150869047Y-63071904D01*
X151097619Y-63071904D01*
X151173809Y-63033809D01*
X151211904Y-62995714D01*
X150373809Y-63071904D02*
X150373809Y-62538571D01*
X150373809Y-62271904D02*
X150411904Y-62310000D01*
X150373809Y-62348095D01*
X150335714Y-62310000D01*
X150373809Y-62271904D01*
X150373809Y-62348095D01*
X149992857Y-62538571D02*
X149992857Y-63071904D01*
X149992857Y-62614761D02*
X149954761Y-62576666D01*
X149878571Y-62538571D01*
X149764285Y-62538571D01*
X149688095Y-62576666D01*
X149650000Y-62652857D01*
X149650000Y-63071904D01*
X148926190Y-63033809D02*
X149002380Y-63071904D01*
X149154761Y-63071904D01*
X149230952Y-63033809D01*
X149269047Y-62995714D01*
X149307142Y-62919523D01*
X149307142Y-62690952D01*
X149269047Y-62614761D01*
X149230952Y-62576666D01*
X149154761Y-62538571D01*
X149002380Y-62538571D01*
X148926190Y-62576666D01*
X148583333Y-63071904D02*
X148583333Y-62271904D01*
X148240476Y-63071904D02*
X148240476Y-62652857D01*
X148278571Y-62576666D01*
X148354761Y-62538571D01*
X148469047Y-62538571D01*
X148545238Y-62576666D01*
X148583333Y-62614761D01*
X150110476Y-64740000D02*
X150205714Y-64692380D01*
X150348571Y-64692380D01*
X150491428Y-64740000D01*
X150586666Y-64835238D01*
X150634285Y-64930476D01*
X150681904Y-65120952D01*
X150681904Y-65263809D01*
X150634285Y-65454285D01*
X150586666Y-65549523D01*
X150491428Y-65644761D01*
X150348571Y-65692380D01*
X150253333Y-65692380D01*
X150110476Y-65644761D01*
X150062857Y-65597142D01*
X150062857Y-65263809D01*
X150253333Y-65263809D01*
X149634285Y-65692380D02*
X149634285Y-64692380D01*
X149062857Y-65692380D01*
X149062857Y-64692380D01*
X148586666Y-65692380D02*
X148586666Y-64692380D01*
X148348571Y-64692380D01*
X148205714Y-64740000D01*
X148110476Y-64835238D01*
X148062857Y-64930476D01*
X148015238Y-65120952D01*
X148015238Y-65263809D01*
X148062857Y-65454285D01*
X148110476Y-65549523D01*
X148205714Y-65644761D01*
X148348571Y-65692380D01*
X148586666Y-65692380D01*
X147539047Y-65644761D02*
X147539047Y-65692380D01*
X147586666Y-65787619D01*
X147634285Y-65835238D01*
X147253333Y-64692380D02*
X146920000Y-65692380D01*
X146586666Y-64692380D01*
X145681904Y-65597142D02*
X145729523Y-65644761D01*
X145872380Y-65692380D01*
X145967619Y-65692380D01*
X146110476Y-65644761D01*
X146205714Y-65549523D01*
X146253333Y-65454285D01*
X146300952Y-65263809D01*
X146300952Y-65120952D01*
X146253333Y-64930476D01*
X146205714Y-64835238D01*
X146110476Y-64740000D01*
X145967619Y-64692380D01*
X145872380Y-64692380D01*
X145729523Y-64740000D01*
X145681904Y-64787619D01*
X144681904Y-65597142D02*
X144729523Y-65644761D01*
X144872380Y-65692380D01*
X144967619Y-65692380D01*
X145110476Y-65644761D01*
X145205714Y-65549523D01*
X145253333Y-65454285D01*
X145300952Y-65263809D01*
X145300952Y-65120952D01*
X145253333Y-64930476D01*
X145205714Y-64835238D01*
X145110476Y-64740000D01*
X144967619Y-64692380D01*
X144872380Y-64692380D01*
X144729523Y-64740000D01*
X144681904Y-64787619D01*
X144205714Y-65644761D02*
X144205714Y-65692380D01*
X144253333Y-65787619D01*
X144300952Y-65835238D01*
X143824761Y-65644761D02*
X143681904Y-65692380D01*
X143443809Y-65692380D01*
X143348571Y-65644761D01*
X143300952Y-65597142D01*
X143253333Y-65501904D01*
X143253333Y-65406666D01*
X143300952Y-65311428D01*
X143348571Y-65263809D01*
X143443809Y-65216190D01*
X143634285Y-65168571D01*
X143729523Y-65120952D01*
X143777142Y-65073333D01*
X143824761Y-64978095D01*
X143824761Y-64882857D01*
X143777142Y-64787619D01*
X143729523Y-64740000D01*
X143634285Y-64692380D01*
X143396190Y-64692380D01*
X143253333Y-64740000D01*
X142253333Y-65597142D02*
X142300952Y-65644761D01*
X142443809Y-65692380D01*
X142539047Y-65692380D01*
X142681904Y-65644761D01*
X142777142Y-65549523D01*
X142824761Y-65454285D01*
X142872380Y-65263809D01*
X142872380Y-65120952D01*
X142824761Y-64930476D01*
X142777142Y-64835238D01*
X142681904Y-64740000D01*
X142539047Y-64692380D01*
X142443809Y-64692380D01*
X142300952Y-64740000D01*
X142253333Y-64787619D01*
X141348571Y-65692380D02*
X141824761Y-65692380D01*
X141824761Y-64692380D01*
X140967619Y-65644761D02*
X140967619Y-65692380D01*
X141015238Y-65787619D01*
X141062857Y-65835238D01*
X140586666Y-65644761D02*
X140443809Y-65692380D01*
X140205714Y-65692380D01*
X140110476Y-65644761D01*
X140062857Y-65597142D01*
X140015238Y-65501904D01*
X140015238Y-65406666D01*
X140062857Y-65311428D01*
X140110476Y-65263809D01*
X140205714Y-65216190D01*
X140396190Y-65168571D01*
X140491428Y-65120952D01*
X140539047Y-65073333D01*
X140586666Y-64978095D01*
X140586666Y-64882857D01*
X140539047Y-64787619D01*
X140491428Y-64740000D01*
X140396190Y-64692380D01*
X140158095Y-64692380D01*
X140015238Y-64740000D01*
X139586666Y-65692380D02*
X139586666Y-64692380D01*
X139348571Y-64692380D01*
X139205714Y-64740000D01*
X139110476Y-64835238D01*
X139062857Y-64930476D01*
X139015238Y-65120952D01*
X139015238Y-65263809D01*
X139062857Y-65454285D01*
X139110476Y-65549523D01*
X139205714Y-65644761D01*
X139348571Y-65692380D01*
X139586666Y-65692380D01*
X138634285Y-65406666D02*
X138158095Y-65406666D01*
X138729523Y-65692380D02*
X138396190Y-64692380D01*
X138062857Y-65692380D01*
%TO.C,RX1*%
X150162857Y-95682380D02*
X150496190Y-95206190D01*
X150734285Y-95682380D02*
X150734285Y-94682380D01*
X150353333Y-94682380D01*
X150258095Y-94730000D01*
X150210476Y-94777619D01*
X150162857Y-94872857D01*
X150162857Y-95015714D01*
X150210476Y-95110952D01*
X150258095Y-95158571D01*
X150353333Y-95206190D01*
X150734285Y-95206190D01*
X149829523Y-94682380D02*
X149162857Y-95682380D01*
X149162857Y-94682380D02*
X149829523Y-95682380D01*
X148258095Y-95682380D02*
X148829523Y-95682380D01*
X148543809Y-95682380D02*
X148543809Y-94682380D01*
X148639047Y-94825238D01*
X148734285Y-94920476D01*
X148829523Y-94968095D01*
X149992857Y-97002380D02*
X150469047Y-97002380D01*
X150469047Y-96002380D01*
X149659523Y-96478571D02*
X149326190Y-96478571D01*
X149183333Y-97002380D02*
X149659523Y-97002380D01*
X149659523Y-96002380D01*
X149183333Y-96002380D01*
X148754761Y-97002380D02*
X148754761Y-96002380D01*
X148516666Y-96002380D01*
X148373809Y-96050000D01*
X148278571Y-96145238D01*
X148230952Y-96240476D01*
X148183333Y-96430952D01*
X148183333Y-96573809D01*
X148230952Y-96764285D01*
X148278571Y-96859523D01*
X148373809Y-96954761D01*
X148516666Y-97002380D01*
X148754761Y-97002380D01*
%TO.C,JP1*%
X122492380Y-94260952D02*
X122492380Y-93784761D01*
X121492380Y-93784761D01*
X122492380Y-94594285D02*
X121492380Y-94594285D01*
X122206666Y-94927619D01*
X121492380Y-95260952D01*
X122492380Y-95260952D01*
X121492380Y-95641904D02*
X121492380Y-96260952D01*
X121873333Y-95927619D01*
X121873333Y-96070476D01*
X121920952Y-96165714D01*
X121968571Y-96213333D01*
X122063809Y-96260952D01*
X122301904Y-96260952D01*
X122397142Y-96213333D01*
X122444761Y-96165714D01*
X122492380Y-96070476D01*
X122492380Y-95784761D01*
X122444761Y-95689523D01*
X122397142Y-95641904D01*
X122492380Y-97213333D02*
X122492380Y-96641904D01*
X122492380Y-96927619D02*
X121492380Y-96927619D01*
X121635238Y-96832380D01*
X121730476Y-96737142D01*
X121778095Y-96641904D01*
X121492380Y-97546666D02*
X121492380Y-98213333D01*
X122492380Y-97784761D01*
X122492380Y-99356190D02*
X121492380Y-99356190D01*
X121873333Y-99356190D02*
X121825714Y-99451428D01*
X121825714Y-99641904D01*
X121873333Y-99737142D01*
X121920952Y-99784761D01*
X122016190Y-99832380D01*
X122301904Y-99832380D01*
X122397142Y-99784761D01*
X122444761Y-99737142D01*
X122492380Y-99641904D01*
X122492380Y-99451428D01*
X122444761Y-99356190D01*
X121825714Y-100165714D02*
X122492380Y-100403809D01*
X121825714Y-100641904D02*
X122492380Y-100403809D01*
X122730476Y-100308571D01*
X122778095Y-100260952D01*
X122825714Y-100165714D01*
X121825714Y-101022857D02*
X122825714Y-101022857D01*
X121873333Y-101022857D02*
X121825714Y-101118095D01*
X121825714Y-101308571D01*
X121873333Y-101403809D01*
X121920952Y-101451428D01*
X122016190Y-101499047D01*
X122301904Y-101499047D01*
X122397142Y-101451428D01*
X122444761Y-101403809D01*
X122492380Y-101308571D01*
X122492380Y-101118095D01*
X122444761Y-101022857D01*
X122492380Y-102356190D02*
X121968571Y-102356190D01*
X121873333Y-102308571D01*
X121825714Y-102213333D01*
X121825714Y-102022857D01*
X121873333Y-101927619D01*
X122444761Y-102356190D02*
X122492380Y-102260952D01*
X122492380Y-102022857D01*
X122444761Y-101927619D01*
X122349523Y-101880000D01*
X122254285Y-101880000D01*
X122159047Y-101927619D01*
X122111428Y-102022857D01*
X122111428Y-102260952D01*
X122063809Y-102356190D01*
X122444761Y-102784761D02*
X122492380Y-102880000D01*
X122492380Y-103070476D01*
X122444761Y-103165714D01*
X122349523Y-103213333D01*
X122301904Y-103213333D01*
X122206666Y-103165714D01*
X122159047Y-103070476D01*
X122159047Y-102927619D01*
X122111428Y-102832380D01*
X122016190Y-102784761D01*
X121968571Y-102784761D01*
X121873333Y-102832380D01*
X121825714Y-102927619D01*
X121825714Y-103070476D01*
X121873333Y-103165714D01*
X122444761Y-103594285D02*
X122492380Y-103689523D01*
X122492380Y-103880000D01*
X122444761Y-103975238D01*
X122349523Y-104022857D01*
X122301904Y-104022857D01*
X122206666Y-103975238D01*
X122159047Y-103880000D01*
X122159047Y-103737142D01*
X122111428Y-103641904D01*
X122016190Y-103594285D01*
X121968571Y-103594285D01*
X121873333Y-103641904D01*
X121825714Y-103737142D01*
X121825714Y-103880000D01*
X121873333Y-103975238D01*
D12*
%TO.C,RV2*%
X145785000Y-112960000D02*
X155555000Y-112960000D01*
X145785000Y-103190000D02*
X155555000Y-103190000D01*
X145785000Y-103190000D02*
X145785000Y-112960000D01*
X155555000Y-103190000D02*
X155555000Y-112960000D01*
%TO.C,TX1*%
X141145000Y-98490000D02*
X141145000Y-98334000D01*
X141145000Y-100806000D02*
X141145000Y-100650000D01*
X141145000Y-100805516D02*
G75*
G03*
X144377335Y-100648608I1560000J1235516D01*
G01*
X144377335Y-98491392D02*
G75*
G03*
X141145000Y-98334484I-1672335J-1078608D01*
G01*
X143746130Y-98490163D02*
G75*
G03*
X141664039Y-98490000I-1041130J-1079837D01*
G01*
X141664039Y-100650000D02*
G75*
G03*
X143746130Y-100649837I1040961J1080000D01*
G01*
%TO.C,RV1*%
X143165000Y-113000000D02*
X133395000Y-113000000D01*
X143165000Y-113000000D02*
X143165000Y-103230000D01*
X143165000Y-103230000D02*
X133395000Y-103230000D01*
X133395000Y-113000000D02*
X133395000Y-103230000D01*
%TO.C,RV3*%
X144460000Y-76635000D02*
X144460000Y-66865000D01*
X144460000Y-76635000D02*
X154230000Y-76635000D01*
X154230000Y-76635000D02*
X154230000Y-66865000D01*
X144460000Y-66865000D02*
X154230000Y-66865000D01*
D16*
%TO.C,Brd2*%
X160782000Y-94516000D02*
X127762000Y-94516000D01*
X160782000Y-61976000D02*
X127762000Y-61976000D01*
X127762000Y-94516000D02*
X127762000Y-61976000D01*
X160782000Y-61976000D02*
X160782000Y-94516000D01*
D12*
%TO.C,RX1*%
X147790000Y-98430000D02*
X147790000Y-98274000D01*
X147790000Y-100746000D02*
X147790000Y-100590000D01*
X150391130Y-98430163D02*
G75*
G03*
X148309039Y-98430000I-1041130J-1079837D01*
G01*
X148309039Y-100590000D02*
G75*
G03*
X150391130Y-100589837I1040961J1080000D01*
G01*
X151022335Y-98431392D02*
G75*
G03*
X147790000Y-98274484I-1672335J-1078608D01*
G01*
X147790000Y-100745516D02*
G75*
G03*
X151022335Y-100588608I1560000J1235516D01*
G01*
%TO.C,JP1*%
X125930000Y-99430000D02*
X125930000Y-97430000D01*
X125930000Y-97430000D02*
X123130000Y-97430000D01*
X123130000Y-97430000D02*
X123130000Y-99430000D01*
X123130000Y-99430000D02*
X125930000Y-99430000D01*
%TD*%
M02*
